<svg xmlns="http://www.w3.org/2000/svg" viewBox="0 0 115 52"><defs><linearGradient id="a" x1="50%" x2="50%" y1="0%" y2="100%"><stop offset="15%" stop-color="#2A4F84"/><stop offset="38.8%" stop-color="#294E82"/><stop offset="100%" stop-color="#172E4E"/></linearGradient></defs><g fill="none"><path fill="url(#a)" d="M106.74 40.316c0 5.29-4.327 9.617-9.616 9.617h-80.83c-5.29 0-9.617-4.327-9.617-9.617V9.69c0-5.29 4.328-9.617 9.617-9.617h80.83c5.29 0 9.616 4.328 9.616 9.617v30.626z" transform="translate(1 1)"/><path fill="#F6F6F6" d="M90.832 25.35c4.224 1.477 6.336 4.01 6.336 7.592 0 2.36-.876 4.23-2.624 5.615-1.745 1.385-4.235 2.245-7.477 2.245-3.24 0-6.24-.94-9-2.48.03-.82.245-1.716.642-2.69.396-.973.865-1.747 1.403-2.312 2.538 1.32 4.747 1.98 6.62 1.98.887 0 1.573-.15 2.05-.448.478-.3.716-.7.716-1.202 0-.946-.734-1.653-2.194-2.125l-2.623-.99c-3.968-1.447-5.953-3.803-5.953-7.077 0-2.39.834-4.284 2.5-5.686 1.668-1.4 3.915-2.604 6.74-2.604 1.398 0 2.937.197 4.62.59 1.682.394 3.064 1.364 4.144 1.897.063.88-.113 1.848-.524 2.9-.414 1.056-.92 1.802-1.526 2.243-2.67-1.196-4.89-1.793-6.67-1.793-.636 0-1.116.14-1.453.425-.332.284-.495.645-.495 1.086 0 .754.602 1.35 1.81 1.792l2.956 1.04h.002zm-21.1 0c4.224 1.477 6.334 4.01 6.334 7.592 0 2.36-.876 4.23-2.62 5.615-1.748 1.385-4.24 2.245-7.48 2.245-3.238 0-6.24-.94-9-2.48.03-.82.246-1.716.643-2.69.396-.973.864-1.747 1.403-2.312 2.54 1.32 4.75 1.98 6.623 1.98.886 0 1.572-.15 2.047-.448.477-.3.716-.7.716-1.202 0-.946-.733-1.653-2.194-2.125l-2.62-.99c-3.97-1.447-5.955-3.803-5.955-7.077 0-2.39.835-4.284 2.503-5.686 1.667-1.4 3.913-2.604 6.738-2.604 1.397 0 2.94.197 4.62.59 1.684.394 3.064 1.364 4.144 1.897.064.88-.113 1.848-.524 2.9-.412 1.056-.92 1.802-1.524 2.243-2.67-1.196-4.89-1.793-6.67-1.793-.637 0-1.12.14-1.454.425-.332.284-.498.645-.498 1.086 0 .754.604 1.35 1.81 1.792l2.957 1.04zm-15.39.332c0-1.446-.23-2.783-.69-4.01-.458-1.228-1.118-2.28-1.975-3.16-.857-.883-1.897-1.574-3.12-2.077-1.222-.503-2.596-1.26-4.12-1.26-1.81 0-3.39.82-4.74 1.45-1.348.627-2.46 1.492-3.332 2.593-.875 1.102-1.526 2.4-1.954 3.892-.428 1.494-.642 3.122-.642 4.883 0 1.822.174 3.508.524 5.048.35 1.54.945 2.876 1.786 4.01.842 1.132 1.937 2.012 3.287 2.64 1.35.628 3.025 1.11 5.026 1.11 3.684 0 6.795-1.065 9.336-2.857-.252-1.822-.9-3.27-1.944-4.34-1.298.487-2.446.836-3.44 1.05-.997.212-1.876.318-2.634.318-1.52 0-2.61-.385-3.274-1.165-.663-.778-1.026-1.697-1.09-3.094h12.384c.41-1.322.615-3.11.615-5.028zm-13.046.327c.095-1.607.388-3.324.875-4.03.49-.71 1.237-1.063 2.246-1.063 1.04 0 1.82.376 2.34 1.13.52.756.78 2.277.78 3.44v.522h-6.24z"/><path fill="#F6F6F6" stroke="#404040" d="M110.234 29.147c-1.347 1.176-2.128 2.868-2.128 5.08v8.24c0 2.74-.842 4.823-2.744 6.255-1.9 1.43-4.115 2.138-6.643 2.207l-1.5-.013V46.81c1.32-.384 1.864-.832 2.39-1.34.952-.86 1.68-2.262 1.68-4.207V34.61c.037-2.26.21-4.032 1.034-5.31.826-1.28 2.434-2.4 4.824-3.366-2.64-1.21-4.412-2.787-5.316-4.734-.53-1.156-.542-2.716-.542-4.68v-6.1c0-2.014-.66-3.426-1.47-4.232-.528-.525-1.142-.945-2.602-1.262V1.072c1.786.018 2.688-.002 3.728 0 1.602-.014 2.943.862 4.11 1.774 1.272 1 2.175 2.352 2.705 4.054.302.983.345 1.922.345 2.816v7.056c0 2.492.736 4.344 1.995 5.554.71.7 1.71 1.343 3.428 1.922v3.187c-1.523.42-2.48.992-3.294 1.712zM15.507 1.074v.005c-.512-.004-.975-.006-1.345-.005-1.603-.014-2.944.862-4.11 1.775-1.274 1-2.364 2.305-2.705 4.053-.194 1.026-.153 1.922-.153 2.817v7.055c0 2.492-.927 4.343-2.185 5.554-.71.7-2.22 1.342-3.94 1.92v3.188c1.524.42 2.99.99 3.805 1.71 1.347 1.178 2.318 2.87 2.318 5.083v8.24c0 2.738.653 4.823 2.553 6.254 1.9 1.43 4.114 2.14 6.642 2.21l1.693-.012v-4.11c-1.32-.385-2.053-.833-2.58-1.34-.953-.862-1.49-2.262-1.49-4.205v-6.653c-.038-2.263-.403-4.033-1.227-5.314-.824-1.278-2.432-2.398-4.825-3.364 2.64-1.21 4.413-2.787 5.316-4.732.533-1.158.735-2.718.735-4.68v-6.1c0-2.016.466-3.428 1.277-4.234.44-.438 1.22-.798 2.308-1.09l1.717.012v-4.04h-3.804v.002z"/><path fill="#F6F6F6" d="M31.34 34.502h-1.287c-1.4 0-1.925-.736-1.925-2.213V5.142c0-1.633-.472-2.78-1.075-3.44-.604-.658-1.65-.65-3.143-.65h-2.905l-.343-.008v.028l-.002 4.04v28.49c0 2.265.51 3.923 1.414 4.978.906 1.055 2.438 1.58 4.597 1.58 1.494 0 3.193-.157 5.097-.472.096-.318.144-1 .144-2.044 0-1.048-.19-2.093-.57-3.142z"/></g></svg>