<svg xmlns="http://www.w3.org/2000/svg" viewBox="0 0 48 50"><g fill="none"><path fill="#B3B3B3" d="M23.512 0L0 8.274 3.715 39.08l19.822 10.893L43.46 38.93 47.174 8.13 23.512 0"/><path fill="#AF2B2D" d="M44.83 9.908L23.456 2.62v44.75l17.91-9.912"/><path fill="#DF2E31" d="M2.638 10.04l3.184 27.55 17.635 9.78V2.62l-20.82 7.42"/><path fill="#F2F2F2" d="M28.41 24.878l-4.914-10.264-4.327 10.264h9.24zm1.875 4.316h-13.03l-2.914 7.29-5.42.1 14.537-32.34L38.5 36.585h-5.024l-3.19-7.39z"/><path fill="#B3B3B3" d="M23.457 4.245l.04 10.37 4.908 10.27h-4.937l-.01 4.302 6.826.007 3.19 7.392 5.19.096L23.456 4.245"/></g></svg>