<svg xmlns="http://www.w3.org/2000/svg" width="335.881" height="355.809"><path d="M167.404 0L0 58.913 26.453 278.24l141.128 77.57 141.857-78.62 26.444-219.32L167.405 0z" fill="#b3b3b3"/><path d="M319.185 70.545l-152.173-51.89v318.62L294.54 266.7l24.645-196.155z" fill="#af2b2d"/><path d="M18.785 71.482l22.667 196.153 125.56 69.64V18.65L18.784 71.48z" fill="#df2e31"/><path d="M202.285 177.13l-34.995-73.08-30.807 73.08h65.802zm13.343 30.73h-92.764l-20.753 51.907-38.6.714L167.013 30.225 274.126 260.48h-35.778l-22.72-52.62z" fill="#f2f2f2"/><path d="M167.012 30.224l.277 73.827 34.958 73.138H167.09l-.078 30.625 48.613.047 22.72 52.63 36.938.685-108.27-230.95z" fill="#b3b3b3"/></svg>