<svg xmlns="http://www.w3.org/2000/svg" width="791.305" height="512"><path fill="#264de4" d="M181.145 512L33.01 470.877 0 100.62h362.734l-33.046 370.2"/><path fill="#2965f1" d="M301.397 447.246l28.24-316.352h-148.27v349.63"/><path fill="#ebebeb" d="M75.677 268.217l4.07 45.41h101.62v-45.41M67.5 176.305l4.127 45.41h109.74v-45.41h-.157M181.367 386.153l-.2.053-50.573-13.656-3.233-36.217H81.777l6.362 71.3 93.02 25.824.21-.058"/><path d="M85.367 0h55v23h-32v23h32v23h-55zM151.367 0h55v20h-32v4h32v46h-55V49h32v-4h-32zM217.367 0h55v20h-32v4h32v46h-55V49h32v-4h-32z"/><path fill="#fff" d="M286.766 268.217l8.198-91.912H181.21v45.41h63.988l-4.132 46.502H181.21v45.41h55.918l-5.27 58.894-50.648 13.67v47.245l93.094-25.8.683-7.673 10.67-119.55"/><g><path fill="#e44d26" d="M791.305 100.62l-33.046 370.2L609.715 512l-148.134-41.123-33.01-370.257"/><path fill="#f16529" d="M609.938 480.523l120.03-33.277 28.24-316.352h-148.27"/><path fill="#ebebeb" d="M545.698 221.716h64.24v-45.41H496.07l1.087 12.182 11.16 125.14h101.62v-45.41h-60.09M555.932 336.333h-45.585l6.362 71.3 93.02 25.824.208-.058v-47.247l-.2.053-50.573-13.656"/><path d="M462.32 0h23.077v22.8h21.11V0h23.078v69.044h-23.077v-23.12h-21.11v23.12H462.32V0zM559.932 22.896h-20.316V0h63.72v22.896H583.01v46.148h-23.077V22.896zM613.45 0h24.062l14.802 24.26L667.1 0h24.073v69.044H668.19V34.822l-15.876 24.55h-.397L636.03 34.82v34.222h-22.58V0zM702.658 0h23.084v46.222h32.453v22.822h-55.537V0z"/><path fill="#fff" d="M609.78 313.627h55.92l-5.272 58.894-50.647 13.67v47.245l93.095-25.8.683-7.673 10.67-119.55 1.11-12.195H609.78M609.78 221.605v.11H719.47l.91-10.206 2.07-23.022 1.085-12.183H609.78v28.204"/></g></svg>