<svg xmlns="http://www.w3.org/2000/svg" viewBox="0 0 52 32"><g fill="none"><path fill="#264DE4" d="M11.715 32l-9.51-2.57L.084 6.29h23.288L21.25 29.425"/><path fill="#2965F1" d="M19.435 27.953L21.248 8.18h-9.52v21.853"/><path fill="#EBEBEB" d="M4.944 16.764l.26 2.838h6.525v-2.838M4.42 11.02l.264 2.837h7.045V11.02h-.01m.01 13.115l-.014.003-3.247-.854-.208-2.263H5.335l.41 4.457 5.97 1.614.014-.003"/><path fill="#000" d="M5.566 0h3.53v1.438H7.043v1.437h2.055v1.438h-3.53V0zm4.237 0h3.53v1.25H11.28v.25h2.054v2.875h-3.53V3.062h2.053v-.25H9.803V0zm4.237 0h3.53v1.25h-2.053v.25h2.054v2.875h-3.53V3.062h2.055v-.25H14.04V0z"/><path fill="#FFF" d="M18.496 16.764l.526-5.745H11.72v2.837h4.107l-.265 2.907H11.72v2.838h3.59l-.34 3.68-3.25.855v2.953l5.976-1.613.044-.48.685-7.47"/><path fill="#E44D26" d="M50.888 6.29l-2.122 23.136L39.23 32l-9.51-2.57L27.6 6.29"/><path fill="#F16529" d="M39.244 30.033l7.706-2.08L48.763 8.18h-9.52"/><path fill="#EBEBEB" d="M35.12 13.857h4.124V11.02h-7.31l.07.76.715 7.822h6.524v-2.838h-3.858m.39 4.257H32.85l.408 4.457 5.972 1.614.014-.003v-2.953l-.013.004-3.246-.854"/><path fill="#000" d="M29.766 0h1.482v1.425h1.355V0h1.482v4.315h-1.482V2.87h-1.355v1.445h-1.482V0zm6.267 1.43H34.73V0h4.09v1.43h-1.305v2.885h-1.482V1.43zM39.47 0h1.544l.95 1.516.95-1.516h1.545v4.315h-1.476v-2.14l-1.02 1.536h-.025l-1.02-1.534v2.14h-1.45V0zm5.726 0h1.482v2.89h2.084v1.425h-3.566V0z"/><path fill="#FFF" d="M39.234 19.602h3.59l-.34 3.68-3.25.855v2.953l5.976-1.613.044-.48.685-7.47.07-.763h-6.776m0-2.914v.007h7.042l.058-.638.133-1.44.07-.76h-7.303v1.762"/></g></svg>