<svg xmlns="http://www.w3.org/2000/svg" width="115" height="52" viewBox="0 0 115 52">
  <defs>
    <linearGradient id="lesss-a" x1="50%" x2="50%" y1="0%" y2="100%">
      <stop offset="15%" stop-color="#2A4F84"/>
      <stop offset="38.8%" stop-color="#294E82"/>
      <stop offset="100%" stop-color="#172E4E"/>
    </linearGradient>
  </defs>
  <g fill="none" transform="translate(1 1)">
    <path fill="url(#lesss-a)" d="M106.740353,40.3164706 C106.740353,45.6056471 102.412824,49.9331765 97.1236471,49.9331765 L16.2941176,49.9331765 C11.0050588,49.9331765 6.67741176,45.6056471 6.67741176,40.3164706 L6.67741176,9.69011765 C6.67741176,4.40094118 11.0050588,0.0734117647 16.2942353,0.0734117647 L97.1236471,0.0734117647 C102.412824,0.0734117647 106.740353,4.40094118 106.740353,9.69011765 L106.740353,40.3164706 Z"/>
    <path fill="#F6F6F6" d="M89.8315294,24.3490588 C94.0562353,25.8270588 96.1675294,28.3594118 96.1675294,31.9423529 C96.1675294,34.3007059 95.2918824,36.1725882 93.5444706,37.5570588 C91.7988235,38.9424706 89.3085882,39.8022353 86.0671765,39.8022353 C82.826,39.8022353 79.8276471,38.8629412 77.066,37.3210588 C77.096,36.5034118 77.3121176,35.6064706 77.7088235,34.6328235 C78.1055294,33.6589412 78.5750588,32.8852941 79.1130588,32.3202353 C81.6510588,33.6390588 83.8596471,34.2997647 85.7342353,34.2997647 C86.6203529,34.2997647 87.306,34.1509412 87.7830588,33.8515294 C88.2610588,33.5531765 88.4987059,33.1527059 88.4987059,32.6495294 C88.4987059,31.7036471 87.7662353,30.9965882 86.306,30.5250588 L83.6829412,29.5344706 C79.7147059,28.0881176 77.7304706,25.7316471 77.7304706,22.4583529 C77.7304706,20.0682353 78.564,18.1738824 80.2310588,16.7724706 C81.8981176,15.3730588 84.1451765,14.1681176 86.9702353,14.1681176 C88.3678824,14.1681176 89.9067059,14.3645882 91.5904706,14.7575294 C93.2724706,15.1516471 94.6542353,16.1216471 95.7337647,16.6547059 C95.7972941,17.5358824 95.6205882,18.5031765 95.21,19.5564706 C94.7964706,20.6108235 94.2895294,21.3572941 93.6841176,21.798 C91.0154118,20.6024706 88.7947059,20.0047059 87.0152941,20.0047059 C86.3781176,20.0047059 85.8982353,20.1458824 85.5614118,20.4303529 C85.2284706,20.7138824 85.0645882,21.0748235 85.0645882,21.5155294 C85.0645882,22.2704706 85.6669412,22.8672941 86.8745882,23.3078824 L89.8314118,24.3490588 L89.8315294,24.3490588 Z M68.7309412,24.3490588 C72.9556471,25.8270588 75.066,28.3594118 75.066,31.9423529 C75.066,34.3007059 74.1904706,36.1725882 72.446,37.5570588 C70.6984706,38.9424706 68.2071765,39.8022353 64.9668235,39.8022353 C61.7282353,39.8022353 58.7262353,38.8629412 55.9656471,37.3210588 C55.9955294,36.5034118 56.2115294,35.6064706 56.6091765,34.6328235 C57.0058824,33.6589412 57.4735294,32.8852941 58.0134118,32.3202353 C60.5542353,33.6390588 62.7618824,34.2997647 64.6357647,34.2997647 C65.5224706,34.2997647 66.2081176,34.1509412 66.6834118,33.8515294 C67.1596471,33.5531765 67.3990588,33.1527059 67.3990588,32.6495294 C67.3990588,31.7036471 66.6667059,30.9965882 65.2064706,30.5250588 L62.5852941,29.5344706 C58.6158824,28.0881176 56.6309412,25.7316471 56.6309412,22.4583529 C56.6309412,20.0682353 57.4645882,18.1738824 59.1332941,16.7724706 C60.7995294,15.3730588 63.0455294,14.1681176 65.8707059,14.1681176 C67.2674118,14.1681176 68.81,14.3645882 70.4901176,14.7575294 C72.174,15.1516471 73.5538824,16.1216471 74.6342353,16.6547059 C74.6977647,17.5358824 74.5210588,18.5031765 74.1104706,19.5564706 C73.6978824,20.6108235 73.19,21.3572941 72.5857647,21.798 C69.9157647,20.6024706 67.6949412,20.0047059 65.9148235,20.0047059 C65.2787059,20.0047059 64.7969412,20.1458824 64.4618824,20.4303529 C64.1298824,20.7138824 63.9642353,21.0748235 63.9642353,21.5155294 C63.9642353,22.2704706 64.5677647,22.8672941 65.7754118,23.3078824 L68.7312941,24.3490588 L68.7309412,24.3490588 Z M53.3432941,24.682 C53.3432941,23.2357647 53.1131765,21.8989412 52.6529412,20.6714118 C52.1936471,19.4443529 51.5341176,18.3917647 50.6771765,17.5105882 C49.8195294,16.6294118 48.7801176,15.938 47.5583529,15.4347059 C46.3348235,14.9323529 44.9614118,14.1747059 43.4375294,14.1747059 C41.6269412,14.1747059 40.0471765,14.9941176 38.6982353,15.6236471 C37.3494118,16.2524706 36.238,17.1168235 35.3652941,18.2177647 C34.4904706,19.3197647 33.8394118,20.6165882 33.4109412,22.1103529 C32.9824706,23.6044706 32.7682353,25.232 32.7682353,26.9927059 C32.7682353,28.8150588 32.9423529,30.5005882 33.2922353,32.0412941 C33.6411765,33.5801176 34.2369412,34.916 35.0781176,36.0498824 C35.92,37.1816471 37.0154118,38.0621176 38.3651765,38.6898824 C39.7150588,39.3184706 41.3904706,39.8011765 43.3905882,39.8011765 C47.0735294,39.8011765 50.1849412,38.7345882 52.7256471,36.9431765 C52.4738824,35.1208235 51.8248235,33.6717647 50.7817647,32.6024706 C49.4841176,33.0898824 48.3363529,33.4389412 47.3410588,33.6530588 C46.3448235,33.8648235 45.4663529,33.9712941 44.7077647,33.9712941 C43.1894118,33.9712941 42.0968235,33.5849412 41.4336471,32.8048235 C40.7712941,32.0274118 40.4077647,31.1078824 40.3434118,29.7111765 L52.7275294,29.7111765 C53.1365882,28.3884706 53.3432941,26.6008235 53.3432941,24.6821176 L53.3432941,24.682 Z M40.2962353,25.0085882 C40.3907059,23.4032941 40.6836471,21.6857647 41.1710588,20.9785882 C41.6592941,20.2703529 42.4068235,19.9168235 43.4161176,19.9168235 C44.4555294,19.9168235 45.2356471,20.2929412 45.7549412,21.0478824 C46.2749412,21.8028235 46.5349412,23.3238824 46.5349412,24.4875294 L46.5358824,25.0087059 L40.2964706,25.0087059 L40.2962353,25.0085882 Z"/>
    <path fill="#F6F6F6" stroke="#404040" d="M109.233529,28.1470588 C107.887412,29.3229412 107.106235,31.0152941 107.106235,33.2276471 L107.106235,41.4672941 C107.106235,44.2063529 106.264235,46.2896471 104.362471,47.7218824 C102.462471,49.1522353 100.247176,49.8603529 97.7187059,49.9285882 L96.2202353,49.9172941 L96.2202353,45.8114118 C97.5411765,45.4261176 98.0837647,44.9781176 98.6094118,44.4690588 C99.5617647,43.6085882 100.291412,42.2081176 100.291412,40.2631765 L100.291412,33.6111765 C100.326941,31.35 100.500824,29.5782353 101.324118,28.2985882 C102.150235,27.0188235 103.758235,25.9 106.148353,24.9336471 C103.508353,23.7250588 101.735647,22.1468235 100.831882,20.2001176 C100.300588,19.044 100.290235,17.4836471 100.290235,15.5209412 L100.290235,9.42058824 C100.290235,7.40552941 99.6307059,5.994 98.8196471,5.18847059 C98.2921176,4.66258824 97.6784706,4.24258824 96.2181176,3.92564706 L96.2181176,0.0715294118 C98.004,0.0901176471 98.9057647,0.0696470588 99.946,0.0715294118 C101.547529,0.0583529412 102.889059,0.933882353 104.056588,1.846 C105.327882,2.846 106.231412,4.198 106.760941,5.89952941 C107.062118,6.88270588 107.105176,7.82188235 107.105176,8.71623529 L107.105176,15.7715294 C107.105176,18.2636471 107.841412,20.116 109.099647,21.3256471 C109.808824,22.0271765 110.809765,22.6688235 112.528235,23.248 L112.528235,26.4350588 C111.005412,26.8562353 110.049412,27.4268235 109.233529,28.1471765 L109.233529,28.1470588 Z M14.5069409,0.0735294118 L14.5069409,0.0790588235 C13.9954115,0.0762352941 13.532235,0.0743529412 13.161882,0.0752941176 C11.5592938,0.0611764706 10.217882,0.936941176 9.05129381,1.84988235 C7.77835264,2.84988235 6.68847028,4.15494118 6.34705852,5.90329412 C6.15258793,6.92858824 6.1937644,7.82470588 6.1937644,8.72 L6.1937644,15.7752941 C6.1937644,18.2665882 5.26670558,20.1178824 4.00941146,21.3294118 C3.30117617,22.0309412 1.78941146,22.6717647 0.0699996948,23.2505882 L0.0699996948,26.4376471 C1.59399969,26.8578824 3.06094087,27.4265882 3.87470558,28.1488235 C5.2217644,29.3256471 6.19270558,31.0189412 6.19270558,33.2311765 L6.19270558,41.4708235 C6.19270558,44.2081176 6.84564675,46.2931765 8.74564675,47.7235294 C10.6456468,49.1529412 12.8597644,49.8638824 15.3883526,49.9329412 L17.0805879,49.9217647 L17.0805879,45.8131765 C15.7605879,45.4268235 15.0274115,44.9787059 14.4988232,44.4716471 C13.5474115,43.6098824 13.0085879,42.2104706 13.0085879,40.2665882 L13.0085879,33.6136471 C12.9721173,31.3507059 12.6074115,29.5807059 11.7831762,28.3 C10.9590585,27.0223529 9.35094087,25.9015294 6.95799969,24.9361176 C9.59894087,23.7267059 11.3707056,22.1492941 12.2744703,20.2035294 C12.8067056,19.0463529 13.0085879,17.4858824 13.0085879,15.5235294 L13.0085879,9.42305882 C13.0085879,7.408 13.4763526,5.99647059 14.2865879,5.19011765 C14.7263526,4.75247059 15.5083526,4.39211765 16.5945879,4.10035294 L18.312235,4.11235294 L18.312235,0.0731764706 L14.5075291,0.0731764706 L14.5075291,0.0735294118 L14.5071762,0.0735294118 L14.5069409,0.0735294118 Z"/>
    <path fill="#F6F6F6" d="M30.3390588,33.5016471 L29.0529412,33.5016471 C27.6544706,33.5016471 27.1277647,32.7663529 27.1277647,31.2892941 L27.1277647,4.14270588 C27.1277647,2.51035294 26.6562353,1.36435294 26.0527059,0.703882353 C25.4491765,0.0454117647 24.4016471,0.0521176471 22.9095294,0.0521176471 L20.0048235,0.0521176471 L19.6624706,0.0454117647 L19.6624706,0.0734117647 L19.6597647,4.11376471 L19.6597647,32.6027059 C19.6597647,34.8683529 20.1687059,36.5262353 21.0741176,37.5812941 C21.9804706,38.6345882 23.5117647,39.1603529 25.6709412,39.1603529 C27.1638824,39.1603529 28.8627059,39.0031765 30.7674118,38.6878824 C30.8627059,38.3697647 30.9105882,37.6888235 30.9105882,36.6438824 C30.9105882,35.5961176 30.72,34.5511765 30.3390588,33.5015294 L30.3390588,33.5016471 Z"/>
  </g>
</svg>
