<svg xmlns="http://www.w3.org/2000/svg" width="16" height="16" viewBox="0 0 90 90" class="octicon">
  <path d="M67.26 67.496H45.055c-3.087 0-5.712-1.08-7.87-3.25-2.166-2.172-3.237-4.797-3.237-7.898v-7.904H65.59c2.854 0 5.312-1.025 7.354-3.062 2.04-2.054 3.066-4.51 3.066-7.366 0-2.867-1.025-5.32-3.072-7.366-2.05-2.042-4.515-3.066-7.38-3.066H33.945v-16.33c0-3.09-1.102-5.735-3.29-7.94C28.478 1.108 25.842 0 22.782 0c-3.146 0-5.825 1.09-8.004 3.25C12.59 5.416 11.5 8.084 11.5 11.264v45.09c0 9.273 3.278 17.196 9.837 23.772C27.9 86.716 35.814 90 45.067 90h22.202c3.08 0 5.728-1.107 7.93-3.314 2.202-2.197 3.3-4.85 3.3-7.936 0-3.088-1.098-5.734-3.3-7.94-2.203-2.203-4.853-3.314-7.94-3.314z"/>
</svg>
