<svg xmlns="http://www.w3.org/2000/svg"><path d="M25.42 31.708c-9.26 0-16.793 7.604-16.793 16.953 0 9.345 7.533 16.95 16.794 16.95 9.258 0 16.79-7.605 16.79-16.95 0-9.348-7.532-16.952-16.79-16.952m0 42.612C11.4 74.32 0 62.803 0 48.66 0 34.51 11.4 23 25.42 23c14.016 0 25.42 11.51 25.42 25.66 0 14.143-11.404 25.66-25.42 25.66" fill="#FFD503"/><path d="M51.555 10.104L55.207 0H34c-2.94 0-5.794 2.386-6.342 5.3L19 51.278h6.116c2.94 0 5.792-2.385 6.338-5.3l2.825-15.21h9.806l3.515-9.724H36.16l2.035-10.94h13.362zM65.736 33.64h-4.85v3.62h3.992c.732 0 1.317.616 1.317 1.362 0 .745-.585 1.342-1.317 1.342h-3.993v5.132c0 .81-.648 1.47-1.443 1.47-.815 0-1.442-.66-1.442-1.47v-12.84c0-.768.607-1.406 1.36-1.406h6.376c.752 0 1.358.638 1.358 1.405s-.606 1.384-1.358 1.384m4.7 12.353c-.752 0-1.4-.64-1.4-1.427v-8.454c0-.788.648-1.448 1.4-1.448.796 0 1.423.66 1.423 1.448v8.454c0 .788-.628 1.427-1.423 1.427m0-12.734c-.878 0-1.59-.725-1.59-1.62 0-.916.712-1.64 1.59-1.64.9 0 1.61.724 1.61 1.64 0 .895-.71 1.62-1.61 1.62m10.315 5.97c0-1.213-.48-1.894-1.59-1.894-1.107 0-1.65.68-1.65 1.895v.278h3.24v-.277zm1.757 2.43H77.51v.403c0 1.28.564 2.023 1.735 2.023 1.045 0 1.61-.17 2.34-.468.566-.234 1.193.106 1.36.723.188.64-.063 1.173-.585 1.408-1.15.532-2.278.68-3.282.68-3.24 0-4.39-2.17-4.39-4.663v-1.98c0-2.492 1.358-4.685 4.41-4.685 3.178 0 4.37 2.15 4.37 4.62v.917c0 .575-.44 1.022-.96 1.022zm8.57 4.86h-.795c-3.01 0-4.097-1.982-4.097-4.94v-3.77h-.335c-.627 0-1.15-.533-1.15-1.171 0-.662.523-1.194 1.15-1.194h.335v-1.448c0-.788.648-1.448 1.42-1.448.775 0 1.402.66 1.402 1.448v1.448h1.61c.648 0 1.17.532 1.17 1.193 0 .637-.522 1.17-1.17 1.17h-1.61l.02 3.705c0 1.746.315 2.47 1.653 2.47h.397c.67 0 1.233.553 1.233 1.256 0 .704-.564 1.28-1.233 1.28m6.574-.09c-1.504 0-2.3-.193-3.03-.448-.606-.214-.858-.937-.69-1.534.23-.702.94-.98 1.546-.766.607.234 1.11.404 2.195.404 1.067 0 1.672-.404 1.672-1.043 0-1.086-1.483-1.043-2.905-1.427-1.275-.32-2.488-.98-2.488-3.066 0-2.28 1.82-3.45 3.91-3.45 1.337 0 2.132.19 2.926.47.65.233.94.872.753 1.51-.188.618-.836.98-1.464.788-.795-.277-1.338-.425-2.05-.425-.982 0-1.42.425-1.42.915 0 .98 1.19 1.023 2.57 1.34 1.38.3 2.844.896 2.844 3.218 0 2.534-2.133 3.513-4.37 3.513m12.305-7.2c0-1.213-.482-1.894-1.59-1.894s-1.65.68-1.65 1.895v.278h3.24v-.277zm1.756 2.43h-4.997v.403c0 1.28.564 2.023 1.734 2.023 1.045 0 1.61-.17 2.34-.468.566-.234 1.193.106 1.36.723.188.64-.063 1.173-.585 1.408-1.15.532-2.28.68-3.283.68-3.24 0-4.39-2.17-4.39-4.663v-1.98c0-2.492 1.36-4.685 4.41-4.685 3.178 0 4.37 2.15 4.37 4.62v.917c0 .575-.44 1.022-.96 1.022zm9.844-3.728c-.355 0-.544-.106-1.192-.106-.836 0-1.526.34-1.798 1.235v5.92c0 .788-.627 1.428-1.4 1.428-.795 0-1.42-.64-1.42-1.427v-6.537c0-.723-.294-.937-.608-1.214-.23-.17-.397-.447-.397-.83 0-.81.543-1.194 1.42-1.194.795 0 1.548.532 1.966 1.235.942-1.19 2.218-1.34 2.886-1.34.94 0 1.882.468 1.882 1.427 0 .724-.46 1.405-1.338 1.405m5.3 8.497c-1.503 0-2.298-.193-3.03-.448-.605-.214-.857-.937-.69-1.534.23-.702.94-.98 1.548-.766.606.234 1.108.404 2.194.404 1.067 0 1.673-.404 1.673-1.043 0-1.086-1.484-1.043-2.906-1.427-1.276-.32-2.49-.98-2.49-3.066 0-2.28 1.82-3.45 3.91-3.45 1.34 0 2.133.19 2.927.47.65.233.942.872.753 1.51-.188.618-.836.98-1.464.788-.794-.277-1.337-.425-2.048-.425-.982 0-1.422.425-1.422.915 0 .98 1.192 1.023 2.572 1.34 1.38.3 2.843.896 2.843 3.218 0 2.534-2.13 3.513-4.37 3.513m13.206-6.913c0-1.298-.42-2.023-1.61-2.023-.544 0-1.17.277-1.61.746v5.175c.44.34 1.003.553 1.526.553 1.192 0 1.694-.66 1.694-1.938v-2.513zm-1.213 6.88c-.962 0-1.965-.32-2.655-.832-.105.128-.23.256-.377.362-.396.32-.877.47-1.315.47-.816 0-1.402-.342-1.402-1.173 0-.404.167-.68.377-.85.334-.278.543-.47.543-1.194V32.277c0-.788.648-1.427 1.422-1.427.774 0 1.4.64 1.4 1.427v3.62c.565-.468 1.443-.83 2.343-.83 2.863 0 3.68 1.788 3.68 4.92v1.808c0 2.94-1.297 4.6-4.015 4.6zm12.935-6.74c0-1.256-.523-1.96-1.673-1.96-1.13 0-1.65.704-1.65 1.96v2.237c0 1.256.52 1.96 1.65 1.96 1.15 0 1.673-.704 1.673-1.96v-2.236zm-1.673 6.773c-3.115 0-4.494-2.045-4.494-4.515v-2.28c0-2.47 1.38-4.535 4.495-4.535s4.495 2.066 4.495 4.536v2.28c0 2.47-1.38 4.514-4.495 4.514zm14.8 0c-.773 0-1.4-.64-1.4-1.427v-5.537c0-.873-.23-1.662-1.465-1.662-.773 0-1.38.342-1.756.874v6.325c0 .787-.626 1.426-1.4 1.426-.794 0-1.422-.64-1.422-1.427v-6.54c0-.722-.292-.935-.606-1.212-.23-.17-.397-.446-.397-.83 0-.83.584-1.192 1.4-1.192.438 0 .92.17 1.338.468.167.15.334.34.46.554.75-.724 1.776-1.15 3.156-1.15 2.635 0 3.512 1.618 3.512 4.025v5.878c0 .787-.627 1.426-1.42 1.426m10.113-8.276c-.462-.447-1.068-.66-1.548-.66-1.214 0-1.652.746-1.652 2.065v2.49c0 1.28.438 1.94 1.672 1.94.48 0 1.046-.235 1.527-.597v-5.24zm2.32 8.24c-.42 0-.9-.148-1.318-.468-.125-.106-.25-.233-.356-.383-.732.532-1.714.852-2.655.852-2.738 0-4.034-1.597-4.034-4.556v-1.727c0-3.13.962-5.047 3.826-5.047.795 0 1.61.256 2.217.66v-3.45c0-.788.605-1.426 1.4-1.426.773 0 1.42.638 1.42 1.427V43.18c0 .723.21.916.544 1.193.19.19.377.447.377.85 0 .832-.584 1.172-1.42 1.172z" fill="#231F20"/></svg>
