<svg xmlns="http://www.w3.org/2000/svg" width="170" height="88" viewBox="0 0 170 88"><g fill="none" fill-rule="evenodd"><path fill="#FFF" d="M83.1033793,87.9999656 L5.17234483,87.9999656 C2.3157931,87.9999656 -6.89655172e-05,85.6913406 -6.89655172e-05,82.8437156 L-6.89655172e-05,5.15621563 C-6.89655172e-05,2.30859063 2.3157931,-3.4375e-05 5.17234483,-3.4375e-05 L83.1033793,-3.4375e-05 C85.9602759,-3.4375e-05 88.2757931,2.30859063 88.2757931,5.15621563 L88.2757931,82.8437156 C88.2757931,85.6913406 85.9602759,87.9999656 83.1033793,87.9999656"></path><path fill="#FC0" d="M31.1554828 24.8056875L31.1554828 63.1224688C31.1554828 64.4046563 31.5699655 65.0172188 32.9182414 65.6321875L32.9182414 68.0631875 22.2537586 68.0631875 22.2537586 65.6321875C23.618931 65.0172188 24.5706552 64.4046563 24.5706552 63.1224688L24.5706552 46.8122188C24.5706552 45.6579063 23.6854828 44.6465938 22.5237586 44.6465938L18.591 44.644875C17.4378966 44.644875 16.6223793 45.6616875 16.6223793 46.80775L16.6223793 63.1960313C16.6223793 64.4706563 17.171 65.3630313 18.521 65.9639063L18.521 68.0631875 7.931 68.0631875 7.931 65.6321875C9.29237931 65.0172188 10.0358276 64.4046563 10.0358276 63.1224688L10.0316897 24.8056875C10.0316897 23.59225 9.29237931 22.9745313 7.931 22.37125L7.931 20.0010938 18.3261724 20.0010938 18.3261724 21.9645938C16.9634138 22.573375 16.6223793 23.045 16.6223793 24.2608438L16.6223793 41.122125 24.5706552 41.122125 24.5706552 24.7365938C24.5706552 23.5173125 23.618931 22.9085313 22.2537586 22.3055938L22.2537586 19.9371563 32.9954828 19.9371563 32.9954828 21.833625C32.0365172 22.3055938 31.1554828 23.390125 31.1554828 24.8056875M34.7041034 68.0631188L34.7041034 65.3664C36.1299655 64.7479938 37.1461724 64.471275 37.1461724 63.324525L37.1461724 24.7399625C37.1461724 23.5921813 36.2651379 22.9768688 34.9768621 22.3072438L34.9768621 20.0020563 45.7720345 20.0020563 45.7720345 22.3072438C44.4113448 22.9768688 43.7382414 23.5921813 43.7382414 24.7399625L43.7382414 64.6194313 46.9313448 64.6194313C48.4175517 64.6194313 49.8592759 63.7985563 51.0020345 62.1781188 51.5434138 61.495775 52.0213448 60.0736813 52.2916897 58.523025 52.4961724 57.170025 54.1196207 56.760275 55.3427241 56.760275L55.3427241 68.0631188 34.7041034 68.0631188zM78.6455517 24.736525L78.6455517 68.0631188 75.9958966 68.0631188 63.4314138 33.87615 63.4314138 63.2616188C63.4314138 64.4705875 63.7003793 65.1539625 65.0607241 65.755525L65.0607241 68.0631188 57.051069 68.0631188 57.051069 65.755525C58.3393448 65.1539625 59.4931379 64.4705875 59.4931379 63.2616188L59.4931379 24.736525C59.4931379 23.3900563 58.3393448 22.9088062 57.051069 22.305525L57.051069 20.0013687 64.4452069 20.0013687 74.7714138 47.6808063 74.7714138 24.736525C74.7714138 23.4557125 73.949 22.9088062 72.5952069 22.305525L72.5952069 20.0013687 80.3448621 20.0013687 80.3448621 22.305525C78.9745172 22.9088062 78.6455517 23.5172438 78.6455517 24.736525"></path><path fill="#FFF" d="M108.598207 2.59084375L108.598207 22.9824375C108.598207 23.665125 108.818897 23.9913438 109.536483 24.31825L109.536483 25.612125 103.860621 25.612125 103.860621 24.31825C104.587517 23.9913438 105.093724 23.665125 105.093724 22.9824375L105.093724 14.3024063C105.093724 13.688125 104.623034 13.1501563 104.004414 13.1501563L101.911655 13.149125C101.297862 13.149125 100.863724 13.6901875 100.863724 14.3L100.863724 23.0219688C100.863724 23.7001875 101.155793 24.17525 101.874069 24.4949375L101.874069 25.612125 96.2385517 25.612125 96.2385517 24.31825C96.9630345 23.9913438 97.3585517 23.665125 97.3585517 22.9824375L97.3564828 2.59084375C97.3564828 1.94528125 96.9630345 1.6163125 96.2385517 1.29525L96.2385517.034375 101.770621.034375 101.770621 1.079375C101.045448 1.4031875 100.863724 1.65378125 100.863724 2.3010625L100.863724 11.2746563 105.093724 11.2746563 105.093724 2.55440625C105.093724 1.90540625 104.587517 1.58125 103.860621 1.26053125L103.860621 0 109.577517 0 109.577517 1.00925C109.067172 1.26053125 108.598207 1.8376875 108.598207 2.59084375M130.389552 7.74238437C130.097483 7.74238437 129.81369 7.56638437 129.668517 6.51966563 129.597138 5.90504062 129.411276 5.32891563 129.234724 4.97038437 129.014379 4.71841562 128.836103 4.64416562 128.513 4.64416562L127.319897 4.64416562 127.319897 23.3421031C127.319897 23.9914469 127.53369 24.3183531 128.258517 24.6363219L128.258517 25.6118844 123.448862 25.6118844 123.448862 24.6363219C124.135069 24.3183531 124.354379 23.9914469 124.354379 23.3421031L124.354379 4.64416562 123.196103 4.64416562C122.874379 4.64416562 122.655069 4.71841562 122.477828 4.97038437 122.29369 5.32891563 122.076448 5.90504062 122.038172 6.51966563 121.896448 7.56638437 121.607138 7.74238437 121.285414 7.74238437L120.709207 7.74238437 120.709207 3.02372812C120.889552 3.05982188 121.137138 3.09591562 121.320241 3.13097812 121.496448 3.16879062 121.791621 3.20763437 122.116448 3.20763437L129.558862 3.20763437C129.884034 3.20763437 130.178862 3.16879062 130.389552 3.13097812 130.569552 3.09591562 130.824379 3.05982188 130.971276 3.02372812L130.971276 7.74238437 130.389552 7.74238437zM110.984897 25.6120219L110.984897 24.6364594C111.671448 24.3181469 111.776276 23.9912406 111.776276 23.3418969L111.776276 5.40089688C111.776276 4.79108438 111.595931 4.46486562 110.839034 4.10736563L110.839034 3.20742812 118.319724 3.20742812C118.679034 3.20742812 118.864207 3.20742812 119.149034 3.13111563 119.367655 3.09605312 119.478 3.05995938 119.694552 3.02386562L119.694552 7.88758437 118.899034 7.81574062C118.571103 7.77724062 118.49869 7.52458438 118.209724 6.51980313 117.815586 5.07605313 117.199034 4.64430312 116.440069 4.64430312L114.778 4.64430312 114.778 13.4693969 115.282483 13.4693969C115.826966 13.4693969 116.585241 13.2583344 116.730069 12.6083031 116.910414 11.7083656 117.054897 11.4161781 117.416276 11.4161781L118.140414 11.4161781 118.140414 16.7858969 117.416276 16.7858969C117.054897 16.7858969 116.910414 16.4277094 116.730069 15.4896156 116.585241 14.8746469 115.826966 14.6635844 115.282483 14.6635844L114.778 14.6635844 114.778 23.9912406 116.188345 23.9912406C117.84731 23.9912406 119.149034 22.7296781 119.296276 21.0377406 119.334207 20.3144906 119.440069 20.1718344 119.874897 20.1718344L120.485586 20.1718344 120.485586 25.6120219 110.984897 25.6120219zM96.2384828 56.588125L96.2384828 55.1529687C96.9974483 54.824 97.5381379 54.6765312 97.5381379 54.066375L97.5381379 33.5324687C97.5381379 32.9212813 97.0691724 32.5940313 96.3836552 32.2375625L96.3836552 31.0110625 102.128828 31.0110625 102.128828 32.2375625C101.40469 32.5940313 101.046069 32.9212813 101.046069 33.5324687L101.046069 54.7555937 102.745724 54.7555937C103.536759 54.7555937 104.304 54.3183437 104.911931 53.4565625 105.200207 53.0932187 105.454345 52.3362812 105.598483 51.5109375 105.707103 50.791125 106.571241 50.5728437 107.221931 50.5728437L107.221931 56.588125 96.2384828 56.588125zM122.909069 49.1289906L124.316655 40.9192094 124.968724 40.9192094 126.37631 49.1289906 122.909069 49.1289906zM111.125966 49.1289906L112.501828 40.9192094 113.153207 40.8119594 114.522517 49.1289906 111.125966 49.1289906zM130.096655 54.1755844L126.201828 33.6788031 123.059069 35.2614281 123.527 36.9585219 120.268379 54.1755844C120.128379 54.7138969 119.875966 55.3268031 119.292172 55.3268031 118.829414 55.3268031 118.462862 54.7878031 118.315966 54.1755844L114.309069 33.6788031 111.236655 35.2614281 111.670448 36.9585219 108.598379 53.7431469C108.419069 54.5743344 108.308379 54.9345844 107.911828 55.1528656L107.911828 56.5880219 111.345276 56.5880219 111.345276 55.5110531C110.442517 55.3268031 110.228379 54.9693031 110.228379 54.5743344 110.228379 54.2498344 110.292517 53.8493656 110.405966 53.1323031L110.83631 50.5727406 114.670103 50.5727406 115.360103 54.3918031C115.501828 55.0078031 115.391483 55.1851781 114.522517 55.5110531L114.522517 56.5880219 123.126655 56.5880219 123.126655 55.5110531C122.25769 55.3268031 122.005966 54.9693031 122.005966 54.5743344 122.005966 54.2498344 122.116655 53.8493656 122.225966 53.1323031L122.691483 50.5727406 126.594586 50.5727406 127.282172 54.3918031C127.42769 55.0078031 127.029759 55.1851781 126.201828 55.5110531L126.201828 56.5880219 131.148724 56.5880219 131.148724 55.5110531C130.680448 55.2948344 130.210103 54.8238969 130.096655 54.1755844L130.096655 54.1755844zM160.169655 56.5894656L160.169655 55.5104344C160.851379 55.1529344 161.107931 54.8249969 161.107931 54.2100281L161.107931 36.3773094C161.107931 35.7685281 160.929655 35.4099969 160.312759 35.0848094L160.312759 34.1845281 167.941034 34.1845281C168.300345 34.1845281 168.446552 34.1845281 168.767931 34.1456844 168.986897 34.1085594 169.131034 34.0013094 169.315517 33.9652156L169.315517 38.8279031 168.552069 38.7931844C168.224828 38.7546844 168.085172 38.5020281 167.831379 37.4604656 167.466207 36.0180906 166.963793 35.5846219 165.876207 35.5846219L164.074483 35.5846219 164.074483 44.0529031 164.903103 44.0529031C165.448621 44.0529031 166.203448 43.7995594 166.346897 43.1900906 166.527241 42.2870594 166.674828 41.9979656 167.034138 41.9979656L167.755172 41.9979656 167.755172 47.5814969 167.034138 47.5814969C166.674828 47.5814969 166.527241 47.3298719 166.346897 46.3945281 166.203448 45.7833406 165.448621 45.5664344 164.903103 45.5664344L164.074483 45.5664344 164.074483 54.8249969 165.448621 54.8249969C167.144483 54.8249969 168.408276 53.7793094 168.58931 52.0846219 168.624828 51.4009031 168.733448 51.2582469 169.165862 51.2582469L169.781379 51.2582469 169.781379 56.5894656 160.169655 56.5894656zM159.047103 38.7194844C158.688483 38.7194844 158.398828 38.5421094 158.250897 37.4977969 158.250897 36.8494844 158.033655 36.2668281 157.819862 35.9117344 157.637793 35.6958594 157.424 35.5844844 157.13331 35.5844844L156.047448 35.5844844 156.047448 54.2098906C156.047448 54.8252031 156.266759 55.1531406 156.986414 55.5106406L156.986414 56.5893281 152.14469 56.5893281 152.14469 55.5106406C152.870207 55.1531406 153.087448 54.8252031 153.087448 54.2098906L153.087448 35.5844844 151.889862 35.5844844C151.605034 35.5844844 151.386759 35.6958594 151.205034 35.9117344 150.988138 36.2668281 150.916414 36.8494844 150.739172 37.4977969 150.591241 38.1478281 150.339517 38.7194844 150.012276 38.7194844L149.435379 38.7194844 149.435379 34.0011719C149.581586 34.0372656 149.870552 34.1084219 150.012276 34.1455469 150.229862 34.1847344 150.517793 34.1847344 150.842966 34.1847344L158.250897 34.1847344C158.577448 34.1847344 158.797448 34.1847344 159.01331 34.1455469 159.160207 34.1084219 159.444 34.0372656 159.589517 34.0011719L159.589517 38.7194844 159.047103 38.7194844zM139.389759 38.7194844C139.062862 38.7194844 138.808034 38.3609531 138.671138 37.4977969 138.559414 36.8494844 138.306655 36.2668281 138.124931 35.9117344 137.941483 35.6958594 137.730103 35.5844844 137.441138 35.5844844L136.214931 35.5844844 136.214931 54.2098906C136.214931 54.8252031 136.462517 55.1531406 137.184241 55.5106406L137.184241 56.5893281 132.554931 56.5893281 132.554931 55.5106406C133.284586 55.1531406 133.245966 54.8252031 133.245966 54.2098906L133.245966 35.5844844 132.087345 35.5844844C131.799759 35.5844844 131.550793 35.6958594 131.400103 35.9117344 131.18631 36.2668281 131.00631 36.8494844 130.930793 37.4977969 130.827 38.5421094 130.53631 38.7194844 130.211138 38.7194844L129.630448 38.7194844 129.630448 34.0011719C129.813207 34.0372656 130.029759 34.1084219 130.246655 34.1455469 130.426655 34.1847344 130.71631 34.1847344 131.081828 34.1847344L138.448724 34.1847344C138.775966 34.1847344 139.101138 34.1847344 139.280103 34.1455469 139.499759 34.1084219 139.71631 34.0372656 139.897 34.0011719L139.897 38.7194844 139.389759 38.7194844zM145.173172 56.7700719C144.086966 56.7700719 143.185931 56.1905094 142.459379 56.1905094 142.09731 56.1905094 141.883517 56.4063844 141.630759 56.6985719L140.544552 56.6985719 140.544552 50.0676344C141.196621 50.0676344 141.486276 50.1387906 141.666966 50.3199469 141.955586 50.5722594 142.09731 50.9703219 142.245586 51.7269156 142.499724 53.5976031 143.111448 55.2204469 144.882483 55.2204469 146.255586 55.2204469 147.341793 53.8141656 147.341793 52.3044156 147.341793 49.9218844 146.221103 48.2698219 144.37731 46.5019156 141.920759 44.1592594 140.906966 42.4635406 140.906966 39.1521969 140.906966 36.7734469 142.030414 33.9650094 144.446621 33.9650094 145.094897 33.9650094 145.752138 34.1846656 146.325931 34.5765406 146.579724 34.7233219 146.762483 34.7955094 147.055586 34.7955094 147.374897 34.7955094 147.554897 34.5765406 147.665931 34.1846656L148.49731 34.1846656 148.49731 39.3333531 147.232828 39.3333531C147.194552 38.8280406 147.015241 38.2886969 146.801103 37.5293531 146.364207 36.0952281 145.856621 35.4410719 144.735931 35.4410719 143.580069 35.4410719 142.786621 36.6314781 142.786621 37.9270719 142.786621 42.2153531 149.653862 43.9096969 149.653862 50.8259469 149.653862 53.7794469 147.665931 56.7700719 145.173172 56.7700719M156.987069 87.9270906C155.900862 87.9270906 154.999828 87.3478719 154.273276 87.3478719 153.910862 87.3478719 153.697069 87.5637469 153.444655 87.8559344L152.358448 87.8559344 152.358448 81.2246531C153.010517 81.2246531 153.299828 81.2961531 153.480517 81.4773094 153.769483 81.7292781 153.910862 82.1276844 154.059483 82.8842781 154.313621 84.7546219 154.925345 86.3774656 156.696379 86.3774656 158.069483 86.3774656 159.155345 84.9715281 159.155345 83.4614344 159.155345 81.0792469 158.035 79.4271844 156.190862 77.6592781 153.734655 75.3166219 152.720862 73.6209031 152.720862 70.3092156 152.720862 67.9308094 153.843966 65.1220281 156.260517 65.1220281 156.908448 65.1220281 157.566034 65.3420281 158.139828 65.7335594 158.393621 65.8806844 158.576379 65.9528719 158.869138 65.9528719 159.188793 65.9528719 159.368793 65.7335594 159.479483 65.3420281L160.311207 65.3420281 160.311207 70.4903719 159.046724 70.4903719C159.008448 69.9854031 158.829138 69.4460594 158.615 68.6867156 158.177759 67.2522469 157.670517 66.5980906 156.549828 66.5980906 155.393621 66.5980906 154.600517 67.7888406 154.600517 69.0844344 154.600517 73.3727156 161.467759 75.0670594 161.467759 81.9833094 161.467759 84.9368094 159.479483 87.9270906 156.987069 87.9270906M107.730586 64.689075L107.730586 87.74645 106.320586 87.74645 99.6340345 69.5527938 99.6340345 85.1917C99.6340345 85.8348563 99.7771379 86.1982 100.501276 86.518575L100.501276 87.74645 96.2385172 87.74645 96.2385172 86.518575C96.9240345 86.1982 97.5381724 85.8348563 97.5381724 85.1917L97.5381724 64.689075C97.5381724 63.9723563 96.9240345 63.7162625 96.2385172 63.3948563L96.2385172 62.1687 100.173345 62.1687 105.668862 76.8994188 105.668862 64.689075C105.668862 64.0074188 105.231276 63.7162625 104.510586 63.3948563L104.510586 62.1687 108.635069 62.1687 108.635069 63.3948563C107.905759 63.7162625 107.730586 64.040075 107.730586 64.689075M115.749862 87.7814094L115.749862 86.8835344C116.472966 86.5545656 116.54331 86.2324719 116.54331 85.5490969L116.54331 67.6105031C116.54331 66.9608156 116.364345 66.5675656 115.929172 66.2770969L115.929172 65.3750969 123.413655 65.3750969C123.733655 65.3750969 123.919172 65.3750969 124.244345 65.3420969 124.42331 65.3035969 124.567448 65.2654406 124.750552 65.2303781L124.750552 70.0225969 123.990207 69.9851281C123.664345 69.9504094 123.553655 69.7008469 123.265724 68.6541281 122.905379 67.2523156 122.399172 66.8133469 121.35331 66.8133469L119.508828 66.8133469 119.508828 75.2104719 120.377793 75.2104719C120.920207 75.2104719 121.640897 74.9939094 121.781586 74.3820344 122.001241 73.4807219 122.109172 73.1895656 122.512621 73.1895656L123.196414 73.1895656 123.196414 78.7727531 122.512621 78.7727531C122.109172 78.7727531 122.001241 78.4874406 121.781586 77.5871594 121.640897 76.9728781 120.920207 76.7583781 120.377793 76.7583781L119.508828 76.7583781 119.508828 86.1984406 120.920207 86.1984406C122.579172 86.1984406 123.881931 84.9729719 124.029862 83.2820656 124.062276 82.5952531 124.168138 82.4158156 124.60469 82.4158156L125.219517 82.4158156 125.219517 87.7814094 115.749862 87.7814094zM109.605276 87.7465188L109.605276 86.84555C110.329069 86.5186438 110.54631 86.1982688 110.54631 85.5138625L110.54631 67.5725188C110.54631 66.9255813 110.329069 66.5677375 109.605276 66.2422063L109.605276 65.341925 114.450103 65.341925 114.450103 66.2422063C113.722172 66.5677375 113.510448 66.8884563 113.510448 67.5725188L113.510448 85.5138625C113.510448 86.1982688 113.722172 86.5186438 114.450103 86.84555L114.450103 87.7465188 109.605276 87.7465188zM151.775241 68.2940844L148.557655 87.7451781 147.147655 87.7451781 144.729379 74.8521469 142.525931 87.7451781 141.042828 87.7451781 137.572828 68.8660844C137.174207 66.7066469 136.924897 66.2432719 136.343862 66.2432719 135.72869 66.2432719 135.445931 66.8888344 135.445931 67.5725531L135.445931 83.5655219C135.445931 85.6940219 133.527655 87.9998969 130.926276 87.9998969 129.409034 87.9998969 126.266276 87.1360531 126.266276 83.2826156L126.266276 67.5725531C126.266276 66.9252719 125.936966 66.5261781 125.39731 66.2432719L125.39731 65.3405844 130.127655 65.3405844 130.127655 66.2432719C129.442138 66.5681156 129.224897 66.8888344 129.224897 67.5725531L129.224897 82.8092719C129.224897 85.1907719 129.986621 86.2677406 131.538 86.2677406 132.403862 86.2677406 133.491103 85.7648344 133.491103 83.9285219L133.491103 67.5725531C133.491103 66.9252719 133.275586 66.5681156 132.552138 66.2432719L132.552138 65.3405844 141.294897 65.3405844 141.294897 66.2432719C140.970759 66.3862719 140.429034 66.7413656 140.429034 67.1425219 140.429034 67.5350844 140.572828 68.2569594 140.611103 68.6550219L142.308345 78.3803969 143.939379 70.1682094 143.391793 67.5725531C143.251793 66.9252719 142.92731 66.5261781 142.379034 66.2432719L142.379034 65.3405844 147.442483 65.3405844 147.442483 66.2432719C146.895586 66.4584594 146.539034 66.6372094 146.539034 66.9950531 146.539034 67.5725531 146.681448 68.2569594 146.755931 68.6550219L148.415931 78.3803969 149.791103 69.1225219C149.895931 68.3638656 149.972138 67.6096781 149.972138 67.2525219 149.972138 66.7788344 149.461793 66.4584594 148.991793 66.2432719L148.991793 65.3405844 153.110759 65.3405844 153.110759 66.2432719C152.281448 66.5681156 151.887655 67.6447406 151.775241 68.2940844"></path></g></svg>
