<svg xmlns="http://www.w3.org/2000/svg" class="icon logo"><g fill="none" fill-rule="evenodd"><path fill="#EE5164" d="M7.5078125,7.8984375 L5.5859375,13 L3.5546875,13 L1.6328125,7.4921875 C1.50260352,7.07551875 1.34375094,6.65625211 1.15625,6.234375 L0.1171875,6.0546875 L0.1953125,4.953125 C0.335938203,4.97395844 0.651039219,5.00260398 1.140625,5.0390625 C1.63021078,5.07552102 2.10937266,5.09375 2.578125,5.09375 C2.84375133,5.09375 3.15885234,5.08333344 3.5234375,5.0625 C3.88802266,5.04166656 4.12760359,5.02604172 4.2421875,5.015625 L4.3203125,6.1484375 L3.6015625,6.21875 C3.66406281,6.69791906 3.72916633,7.07031117 3.796875,7.3359375 L4.6953125,10.6328125 L5.78125,7.3359375 C5.84375031,7.1432282 5.94010352,6.77083609 6.0703125,6.21875 L5.3515625,6.1484375 L5.4296875,5.015625 C5.53385469,5.02604172 5.78645633,5.04166656 6.1875,5.0625 C6.58854367,5.08333344 7.02343516,5.09375 7.4921875,5.09375 C7.75781383,5.09375 8.03775895,5.08333344 8.33203125,5.0625 C8.62630355,5.04166656 8.81510375,5.02604172 8.8984375,5.015625 L8.9765625,6.1484375 L8.2578125,6.25 C7.82031031,7.17708797 7.57031281,7.72656164 7.5078125,7.8984375 Z M12.0625,9.4609375 C12.1145836,10.2734416 12.3007796,10.8502587 12.6210938,11.1914062 C12.9414079,11.5325538 13.4218718,11.703125 14.0625,11.703125 C14.4062517,11.703125 14.7213527,11.6627608 15.0078125,11.5820312 C15.2942723,11.5013017 15.5195304,11.4218754 15.6835938,11.34375 C15.8476571,11.2656246 15.9531248,11.2109377 16,11.1796875 L16.5546875,12.1015625 C15.7109333,12.8567746 14.6666729,13.2369791 13.421875,13.2421875 C12.1927022,13.2421875 11.2317743,12.881514 10.5390625,12.1601562 C9.8463507,11.4387985 9.5,10.4270898 9.5,9.125 C9.5,7.80207672 9.84895484,6.77604531 10.546875,6.046875 C11.2447952,5.31770469 12.1822858,4.953125 13.359375,4.953125 C14.4270887,4.953125 15.2539033,5.26171566 15.8398438,5.87890625 C16.4257842,6.49609684 16.71875,7.35416117 16.71875,8.453125 L16.703125,8.84375 L16.3671875,9.4609375 L12.0625,9.4609375 Z M14.1875,8.0390625 C14.1875,6.82551477 13.8515659,6.21875 13.1796875,6.21875 C12.7942689,6.21875 12.5169279,6.39713363 12.3476562,6.75390625 C12.1783846,7.11067887 12.0833334,7.61978836 12.0625,8.28125 L14.171875,8.171875 L14.1875,8.0390625 Z M22.8515625,4.953125 C23.0963554,4.953125 23.3554674,4.97395812 23.6289062,5.015625 C23.9023451,5.05729188 24.0807287,5.08854156 24.1640625,5.109375 L23.9296875,8.328125 L22.7421875,8.28125 L22.7421875,7.3984375 C22.7421875,7.35677062 22.7005213,7.08073172 22.6171875,6.5703125 C22.5963541,6.55989578 22.5625002,6.5546875 22.515625,6.5546875 C22.0885395,6.5546875 21.7187516,6.75130012 21.40625,7.14453125 C21.0937484,7.53776238 20.9375,8.07551742 20.9375,8.7578125 L20.9375,9.9140625 C20.9375,10.2421891 20.955729,10.6041647 20.9921875,11 C21.028646,11.3958353 21.0572916,11.6510411 21.078125,11.765625 L22.40625,11.8671875 L22.328125,13.078125 C22.1770826,13.0677083 21.8242215,13.0520834 21.2695312,13.03125 C20.714841,13.0104166 20.0598996,13 19.3046875,13 C18.9973943,13 18.6562519,13.0104166 18.28125,13.03125 C17.9062481,13.0520834 17.6588548,13.0677083 17.5390625,13.078125 L17.4609375,11.9609375 L18.546875,11.765625 C18.5572917,11.6458327 18.5846352,11.4192725 18.6289062,11.0859375 C18.6731773,10.7526025 18.6953125,10.520834 18.6953125,10.390625 L18.6953125,7.796875 C18.6953125,7.6562493 18.6744794,7.4192725 18.6328125,7.0859375 C18.5911456,6.7526025 18.5572918,6.52604227 18.53125,6.40625 L17.3359375,6.1328125 L17.4765625,4.9375 C17.6067715,4.95833344 17.8828104,4.98958312 18.3046875,5.03125 C18.7265646,5.07291688 19.0755195,5.09375 19.3515625,5.09375 L20.1171875,5.0625 L20.453125,5.3671875 L20.6015625,6.421875 C21.2265656,5.44270344 21.9765581,4.953125 22.8515625,4.953125 Z M25.2226562,0.83984375 C25.6419292,0.884114805 25.9921861,0.90625 26.2734375,0.90625 L27.6796875,0.875 L28.015625,1.1796875 C27.9947916,1.40364695 27.9622398,1.8619757 27.9179688,2.5546875 C27.8736977,3.2473993 27.8515625,3.75781086 27.8515625,4.0859375 L27.8515625,6.0703125 C28.1380223,5.70572734 28.4635398,5.42838637 28.828125,5.23828125 C29.1927102,5.04817613 29.6249975,4.953125 30.125,4.953125 C31.1718802,4.953125 31.9401017,5.31770469 32.4296875,6.046875 C32.9192733,6.77604531 33.1640625,7.73957734 33.1640625,8.9375 C33.1640625,10.27084 32.8203159,11.307288 32.1328125,12.046875 C31.4453091,12.786462 30.4505273,13.15625 29.1484375,13.15625 C27.9869734,13.15625 26.7552148,12.9661477 25.453125,12.5859375 C25.4739584,12.3828115 25.5065102,11.9987007 25.5507812,11.4335938 C25.5950523,10.8684868 25.6171875,10.520834 25.6171875,10.390625 L25.6171875,3.609375 C25.6171875,3.4687493 25.5950523,3.23047043 25.5507812,2.89453125 C25.5065102,2.55859207 25.4739584,2.33333391 25.453125,2.21875 L24.2578125,1.9453125 L24.3984375,0.7421875 C24.5286465,0.763020937 24.8033833,0.795572695 25.2226562,0.83984375 Z M27.8515625,8.84375 L27.8515625,9.9140625 C27.8515625,10.0963551 27.8697915,10.6015584 27.90625,11.4296875 C28.3437522,11.5703132 28.6953112,11.640625 28.9609375,11.640625 C29.6119824,11.640625 30.0520822,11.4270855 30.28125,11 C30.5104178,10.5729145 30.625,9.95312906 30.625,9.140625 C30.625,8.41666305 30.5312509,7.83854383 30.34375,7.40625 C30.1562491,6.97395617 29.7968777,6.7578125 29.265625,6.7578125 C28.395829,6.76302086 27.9244795,7.45832641 27.8515625,8.84375 Z M37.1953125,1.5859375 C37.419272,1.81510531 37.53125,2.12760219 37.53125,2.5234375 C37.53125,2.90885609 37.4218761,3.21484262 37.203125,3.44140625 C36.9843739,3.66796988 36.671877,3.78125 36.265625,3.78125 C35.859373,3.78125 35.5468761,3.66666781 35.328125,3.4375 C35.1093739,3.20833219 35,2.90364773 35,2.5234375 C35,2.13801891 35.111978,1.82812617 35.3359375,1.59375 C35.559897,1.35937383 35.8697897,1.2421875 36.265625,1.2421875 C36.6614603,1.2421875 36.971353,1.35676969 37.1953125,1.5859375 Z M37.578125,13.03125 C37.0677058,13.0104166 36.4322955,13 35.671875,13 C35.3645818,13 35.0455746,13.0104166 34.7148438,13.03125 C34.3841129,13.0520834 34.1718755,13.0677083 34.078125,13.078125 L33.9921875,11.9609375 L35.046875,11.765625 C35.0572917,11.6458327 35.0846352,11.4192725 35.1289062,11.0859375 C35.1731773,10.7526025 35.1953125,10.520834 35.1953125,10.390625 L35.1953125,7.796875 C35.1953125,7.6562493 35.1744794,7.4192725 35.1328125,7.0859375 C35.0911456,6.7526025 35.0572918,6.52604227 35.03125,6.40625 L33.8359375,6.1328125 L33.9765625,4.953125 C34.1067715,4.97395844 34.3828104,5.00260398 34.8046875,5.0390625 C35.2265646,5.07552102 35.5755195,5.09375 35.8515625,5.09375 L37.2578125,5.0625 L37.59375,5.3671875 C37.5729166,5.59114695 37.5416669,6.0494757 37.5,6.7421875 C37.4583331,7.4348993 37.4375,7.947915 37.4375,8.28125 L37.4375,9.9140625 C37.4375,10.2421891 37.455729,10.6041647 37.4921875,11 C37.528646,11.3958353 37.5572916,11.6510411 37.578125,11.765625 L38.6171875,11.8671875 L38.5390625,13.078125 C38.4088535,13.0677083 38.0885442,13.0520834 37.578125,13.03125 Z M48.8515625,13.078125 C48.7213535,13.0677083 48.4010442,13.0520834 47.890625,13.03125 C47.3802058,13.0104166 46.7447955,13 45.984375,13 C45.6770818,13 45.3906263,13.0104166 45.125,13.03125 C44.8593737,13.0520834 44.6875004,13.0677083 44.609375,13.078125 L44.53125,11.9609375 L45.4296875,11.765625 L45.4765625,11.0625 L45.5078125,10.390625 L45.5078125,8.0234375 C45.5078125,7.58593531 45.4088552,7.23177219 45.2109375,6.9609375 C45.0130198,6.69010281 44.7161478,6.5546875 44.3203125,6.5546875 C43.893227,6.5546875 43.5234391,6.75130012 43.2109375,7.14453125 C42.8984359,7.53776238 42.7421875,8.07551742 42.7421875,8.7578125 L42.7421875,9.9140625 C42.7421875,10.2421891 42.7604165,10.6041647 42.796875,11 C42.8333335,11.3958353 42.8619791,11.6510411 42.8828125,11.765625 L43.921875,11.8671875 L43.84375,13.078125 C43.713541,13.0677083 43.3932317,13.0520834 42.8828125,13.03125 C42.3723933,13.0104166 41.736983,13 40.9765625,13 C40.6692693,13 40.3502621,13.0104166 40.0195312,13.03125 C39.6888004,13.0520834 39.476563,13.0677083 39.3828125,13.078125 L39.296875,11.9609375 L40.3515625,11.765625 C40.3619792,11.6458327 40.3893227,11.4218766 40.4335938,11.09375 C40.4778648,10.7656234 40.5,10.5312507 40.5,10.390625 L40.5,7.796875 C40.5,7.66666602 40.4791669,7.43229336 40.4375,7.09375 C40.3958331,6.75520664 40.3619793,6.52604227 40.3359375,6.40625 L39.140625,6.1328125 L39.28125,4.953125 C39.411459,4.97395844 39.6874979,5.00260398 40.109375,5.0390625 C40.5312521,5.07552102 40.880207,5.09375 41.15625,5.09375 L41.921875,5.0625 L42.2578125,5.3671875 L42.421875,6.5078125 C42.7656267,6.00781 43.1497375,5.62369926 43.5742188,5.35546875 C43.9987,5.08723824 44.4999971,4.953125 45.078125,4.953125 C45.9531294,4.953125 46.6171852,5.19531008 47.0703125,5.6796875 C47.5234398,6.16406492 47.75,6.86978703 47.75,7.796875 L47.75,9.9140625 C47.75,10.2421891 47.768229,10.6041647 47.8046875,11 C47.841146,11.3958353 47.8697916,11.6510411 47.890625,11.765625 L48.9296875,11.8671875 L48.8515625,13.078125 Z M57.1015625,13.03125 C56.6223934,13.0104166 55.9349003,13 55.0390625,13 L54.9140625,11.796875 C54.5859359,12.2760441 54.2265645,12.6223948 53.8359375,12.8359375 C53.4453105,13.0494802 52.9869818,13.15625 52.4609375,13.15625 C51.4921827,13.15625 50.7434922,12.8098993 50.2148438,12.1171875 C49.6861953,11.4244757 49.421875,10.4453188 49.421875,9.1796875 C49.421875,7.83593078 49.7708298,6.7955766 50.46875,6.05859375 C51.1666702,5.3216109 52.1562436,4.953125 53.4375,4.953125 C53.7916684,4.953125 54.2239558,4.97916641 54.734375,5.03125 L54.734375,3.609375 C54.734375,3.4687493 54.7135419,3.23047043 54.671875,2.89453125 C54.6302081,2.55859207 54.5989584,2.33333391 54.578125,2.21875 L53.375,1.9453125 L53.515625,0.7421875 C53.645834,0.763020937 53.9218729,0.795572695 54.34375,0.83984375 C54.7656271,0.884114805 55.114582,0.90625 55.390625,0.90625 L56.796875,0.875 L57.1328125,1.1796875 C57.1119791,1.40364695 57.0807294,1.8619757 57.0390625,2.5546875 C56.9973956,3.2473993 56.9765625,3.75781086 56.9765625,4.0859375 L56.9765625,9.9140625 C56.9765625,10.2421891 56.9947915,10.6041647 57.03125,11 C57.0677085,11.3958353 57.0963541,11.6510411 57.1171875,11.765625 L58.078125,11.8671875 L57.984375,13.078125 C57.8749995,13.0677083 57.5807316,13.0520834 57.1015625,13.03125 Z M53.6328125,6.46875 C53.0442679,6.46875 52.619793,6.66666469 52.359375,7.0625 C52.098957,7.45833531 51.96875,8.09374563 51.96875,8.96875 C51.96875,9.78125406 52.0781239,10.3815085 52.296875,10.7695312 C52.5156261,11.157554 52.8593727,11.3515625 53.328125,11.3515625 C54.1822959,11.3515625 54.6510412,10.6588611 54.734375,9.2734375 L54.734375,6.6796875 C54.3072895,6.5390618 53.9401057,6.46875 53.6328125,6.46875 Z M63.2773438,12.9335938 C62.9466129,13.082032 62.5677105,13.15625 62.140625,13.15625 C61.2864541,13.15625 60.6731789,12.9414084 60.3007812,12.5117188 C59.9283836,12.0820291 59.7421875,11.414067 59.7421875,10.5078125 L59.7421875,6.296875 L58.71875,6.296875 L58.671875,5.2890625 C58.7343753,5.25781234 58.9973935,5.15364672 59.4609375,4.9765625 C59.9244815,4.79947828 60.1770831,4.67968781 60.21875,4.6171875 C60.3020838,4.49739523 60.4518218,4.26432465 60.6679688,3.91796875 C60.8841157,3.57161285 61.0286455,3.34114641 61.1015625,3.2265625 L61.984375,3.2890625 L61.984375,5.09375 L63.8828125,5.09375 L63.7421875,6.296875 L61.984375,6.296875 L61.984375,10.7109375 C61.984375,10.9869805 62.058593,11.2239573 62.2070312,11.421875 C62.3554695,11.6197927 62.5572904,11.71875 62.8125,11.71875 C62.942709,11.71875 63.0716139,11.6953127 63.1992188,11.6484375 C63.3268236,11.6015623 63.4335933,11.5533857 63.5195312,11.5039062 C63.6054692,11.4544268 63.6588541,11.4192709 63.6796875,11.3984375 L64.265625,12.3125 C63.9374984,12.5781263 63.6080746,12.7851555 63.2773438,12.9335938 Z M75.09375,13.03125 C74.6145809,13.0104166 73.9270878,13 73.03125,13 L72.90625,11.796875 C72.5781234,12.2760441 72.218752,12.6223948 71.828125,12.8359375 C71.437498,13.0494802 70.9791693,13.15625 70.453125,13.15625 C69.4843702,13.15625 68.7356797,12.8098993 68.2070312,12.1171875 C67.6783828,11.4244757 67.4140625,10.4453188 67.4140625,9.1796875 C67.4140625,7.83593078 67.7630173,6.7955766 68.4609375,6.05859375 C69.1588577,5.3216109 70.1484311,4.953125 71.4296875,4.953125 C71.7838559,4.953125 72.2161433,4.97916641 72.7265625,5.03125 L72.7265625,3.609375 C72.7265625,3.4687493 72.7057294,3.23047043 72.6640625,2.89453125 C72.6223956,2.55859207 72.5911459,2.33333391 72.5703125,2.21875 L71.3671875,1.9453125 L71.5078125,0.7421875 C71.6380215,0.763020937 71.9140604,0.795572695 72.3359375,0.83984375 C72.7578146,0.884114805 73.1067695,0.90625 73.3828125,0.90625 L74.7890625,0.875 L75.125,1.1796875 C75.1041666,1.40364695 75.0729169,1.8619757 75.03125,2.5546875 C74.9895831,3.2473993 74.96875,3.75781086 74.96875,4.0859375 L74.96875,9.9140625 C74.96875,10.2421891 74.986979,10.6041647 75.0234375,11 C75.059896,11.3958353 75.0885416,11.6510411 75.109375,11.765625 L76.0703125,11.8671875 L75.9765625,13.078125 C75.867187,13.0677083 75.5729191,13.0520834 75.09375,13.03125 Z M71.625,6.46875 C71.0364554,6.46875 70.6119805,6.66666469 70.3515625,7.0625 C70.0911445,7.45833531 69.9609375,8.09374563 69.9609375,8.96875 C69.9609375,9.78125406 70.0703114,10.3815085 70.2890625,10.7695312 C70.5078136,11.157554 70.8515602,11.3515625 71.3203125,11.3515625 C72.1744834,11.3515625 72.6432288,10.6588611 72.7265625,9.2734375 L72.7265625,6.6796875 C72.299477,6.5390618 71.9322932,6.46875 71.625,6.46875 Z M79.3984375,9.4609375 C79.4505211,10.2734416 79.6367171,10.8502587 79.9570312,11.1914062 C80.2773454,11.5325538 80.7578093,11.703125 81.3984375,11.703125 C81.7421892,11.703125 82.0572902,11.6627608 82.34375,11.5820312 C82.6302098,11.5013017 82.8554679,11.4218754 83.0195312,11.34375 C83.1835946,11.2656246 83.2890623,11.2109377 83.3359375,11.1796875 L83.890625,12.1015625 C83.0468708,12.8567746 82.0026104,13.2369791 80.7578125,13.2421875 C79.5286397,13.2421875 78.5677118,12.881514 77.875,12.1601562 C77.1822882,11.4387985 76.8359375,10.4270898 76.8359375,9.125 C76.8359375,7.80207672 77.1848923,6.77604531 77.8828125,6.046875 C78.5807327,5.31770469 79.5182233,4.953125 80.6953125,4.953125 C81.7630262,4.953125 82.5898408,5.26171566 83.1757812,5.87890625 C83.7617217,6.49609684 84.0546875,7.35416117 84.0546875,8.453125 L84.0390625,8.84375 L83.703125,9.4609375 L79.3984375,9.4609375 Z M81.5234375,8.0390625 C81.5234375,6.82551477 81.1875034,6.21875 80.515625,6.21875 C80.1302064,6.21875 79.8528654,6.39713363 79.6835938,6.75390625 C79.5143221,7.11067887 79.4192709,7.61978836 79.3984375,8.28125 L81.5078125,8.171875 L81.5234375,8.0390625 Z M94.6015625,7.8984375 L92.6796875,13 L90.6484375,13 L88.7265625,7.4921875 C88.5963535,7.07551875 88.4375009,6.65625211 88.25,6.234375 L87.2109375,6.0546875 L87.2890625,4.953125 C87.4296882,4.97395844 87.7447892,5.00260398 88.234375,5.0390625 C88.7239608,5.07552102 89.2031227,5.09375 89.671875,5.09375 C89.9375013,5.09375 90.2526023,5.08333344 90.6171875,5.0625 C90.9817727,5.04166656 91.2213536,5.02604172 91.3359375,5.015625 L91.4140625,6.1484375 L90.6953125,6.21875 C90.7578128,6.69791906 90.8229163,7.07031117 90.890625,7.3359375 L91.7890625,10.6328125 L92.875,7.3359375 C92.9375003,7.1432282 93.0338535,6.77083609 93.1640625,6.21875 L92.4453125,6.1484375 L92.5234375,5.015625 C92.6276047,5.02604172 92.8802063,5.04166656 93.28125,5.0625 C93.6822937,5.08333344 94.1171852,5.09375 94.5859375,5.09375 C94.8515638,5.09375 95.1315089,5.08333344 95.4257812,5.0625 C95.7200536,5.04166656 95.9088537,5.02604172 95.9921875,5.015625 L96.0703125,6.1484375 L95.3515625,6.25 C94.9140603,7.17708797 94.6640628,7.72656164 94.6015625,7.8984375 Z M99.15625,9.4609375 C99.2083336,10.2734416 99.3945296,10.8502587 99.7148438,11.1914062 C100.035158,11.5325538 100.515622,11.703125 101.15625,11.703125 C101.500002,11.703125 101.815103,11.6627608 102.101562,11.5820312 C102.388022,11.5013017 102.61328,11.4218754 102.777344,11.34375 C102.941407,11.2656246 103.046875,11.2109377 103.09375,11.1796875 L103.648438,12.1015625 C102.804683,12.8567746 101.760423,13.2369791 100.515625,13.2421875 C99.2864522,13.2421875 98.3255243,12.881514 97.6328125,12.1601562 C96.9401007,11.4387985 96.59375,10.4270898 96.59375,9.125 C96.59375,7.80207672 96.9427048,6.77604531 97.640625,6.046875 C98.3385452,5.31770469 99.2760358,4.953125 100.453125,4.953125 C101.520839,4.953125 102.347653,5.26171566 102.933594,5.87890625 C103.519534,6.49609684 103.8125,7.35416117 103.8125,8.453125 L103.796875,8.84375 L103.460938,9.4609375 L99.15625,9.4609375 Z M101.28125,8.0390625 C101.28125,6.82551477 100.945316,6.21875 100.273438,6.21875 C99.8880189,6.21875 99.6106779,6.39713363 99.4414062,6.75390625 C99.2721346,7.11067887 99.1770834,7.61978836 99.15625,8.28125 L101.265625,8.171875 L101.28125,8.0390625 Z M109.945312,4.953125 C110.190105,4.953125 110.449217,4.97395812 110.722656,5.015625 C110.996095,5.05729188 111.174479,5.08854156 111.257812,5.109375 L111.023438,8.328125 L109.835938,8.28125 L109.835938,7.3984375 C109.835938,7.35677062 109.794271,7.08073172 109.710938,6.5703125 C109.690104,6.55989578 109.65625,6.5546875 109.609375,6.5546875 C109.18229,6.5546875 108.812502,6.75130012 108.5,7.14453125 C108.187498,7.53776238 108.03125,8.07551742 108.03125,8.7578125 L108.03125,9.9140625 C108.03125,10.2421891 108.049479,10.6041647 108.085938,11 C108.122396,11.3958353 108.151042,11.6510411 108.171875,11.765625 L109.5,11.8671875 L109.421875,13.078125 C109.270833,13.0677083 108.917972,13.0520834 108.363281,13.03125 C107.808591,13.0104166 107.15365,13 106.398438,13 C106.091144,13 105.750002,13.0104166 105.375,13.03125 C104.999998,13.0520834 104.752605,13.0677083 104.632812,13.078125 L104.554688,11.9609375 L105.640625,11.765625 C105.651042,11.6458327 105.678385,11.4192725 105.722656,11.0859375 C105.766927,10.7526025 105.789062,10.520834 105.789062,10.390625 L105.789062,7.796875 C105.789062,7.6562493 105.768229,7.4192725 105.726562,7.0859375 C105.684896,6.7526025 105.651042,6.52604227 105.625,6.40625 L104.429688,6.1328125 L104.570312,4.9375 C104.700521,4.95833344 104.97656,4.98958312 105.398438,5.03125 C105.820315,5.07291688 106.169269,5.09375 106.445312,5.09375 L107.210938,5.0625 L107.546875,5.3671875 L107.695312,6.421875 C108.320316,5.44270344 109.070308,4.953125 109.945312,4.953125 Z M117.554688,5.3359375 L117.367188,7.8671875 L116.289062,7.78125 L116.289062,7.09375 C116.289062,7.05208312 116.265625,6.96484441 116.21875,6.83203125 C116.171875,6.69921809 116.122396,6.58333383 116.070312,6.484375 C115.684894,6.31249914 115.309898,6.22916664 114.945312,6.234375 C114.591144,6.234375 114.329428,6.29296816 114.160156,6.41015625 C113.990885,6.52734434 113.90625,6.67187414 113.90625,6.84375 C113.90625,7.04687602 114.010416,7.21223895 114.21875,7.33984375 C114.427084,7.46744855 114.765623,7.61979078 115.234375,7.796875 C115.765628,8.00000102 116.21354,8.20051984 116.578125,8.3984375 C116.94271,8.59635516 117.255207,8.87890441 117.515625,9.24609375 C117.776043,9.61328309 117.90625,10.0859346 117.90625,10.6640625 C117.90625,11.4661498 117.626305,12.0820291 117.066406,12.5117188 C116.506508,12.9414084 115.747401,13.15625 114.789062,13.15625 C114.445311,13.15625 114.063804,13.1302086 113.644531,13.078125 C113.225258,13.0260414 112.860679,12.9700524 112.550781,12.9101562 C112.240884,12.8502601 112.041667,12.8098959 111.953125,12.7890625 L112.148438,10.1484375 L113.28125,10.234375 L113.28125,10.953125 C113.291667,11.0364588 113.313802,11.1419264 113.347656,11.2695312 C113.381511,11.3971361 113.408854,11.489583 113.429688,11.546875 C114.007815,11.7812512 114.476561,11.8984375 114.835938,11.8984375 C115.122397,11.8984375 115.364582,11.8372402 115.5625,11.7148438 C115.760418,11.5924473 115.859375,11.4244802 115.859375,11.2109375 C115.859375,10.986978 115.757814,10.8098965 115.554688,10.6796875 C115.351561,10.5494785 115.015627,10.3906259 114.546875,10.203125 C114.026039,9.98958227 113.597658,9.7864593 113.261719,9.59375 C112.92578,9.4010407 112.632814,9.12109559 112.382812,8.75390625 C112.132811,8.38671691 112.007812,7.91406539 112.007812,7.3359375 C112.007812,6.54426687 112.273435,5.94922074 112.804688,5.55078125 C113.33594,5.15234176 114.067704,4.953125 115,4.953125 C115.890629,4.953125 116.742183,5.08072789 117.554688,5.3359375 Z M123.914062,5.0390625 C124.33594,5.09635445 124.684894,5.15494762 124.960938,5.21484375 C125.236981,5.27473988 125.411458,5.31510406 125.484375,5.3359375 L125.25,8.171875 L123.890625,8.1171875 L123.90625,7.2578125 C123.885417,6.98176945 123.864583,6.7734382 123.84375,6.6328125 C123.703124,6.50260352 123.536459,6.40104203 123.34375,6.328125 C123.151041,6.25520797 122.968751,6.21875 122.796875,6.21875 C122.276039,6.21875 121.89323,6.45051852 121.648438,6.9140625 C121.403645,7.37760648 121.28125,8.09895344 121.28125,9.078125 C121.28125,10.817717 121.921869,11.6875 123.203125,11.6875 C123.531252,11.6875 123.834634,11.64974 124.113281,11.5742188 C124.391928,11.4986975 124.610676,11.4218754 124.769531,11.34375 C124.928386,11.2656246 125.028646,11.2109377 125.070312,11.1796875 L125.632812,12.1015625 C125.22656,12.4661477 124.770836,12.7473948 124.265625,12.9453125 C123.760414,13.1432302 123.250003,13.2421875 122.734375,13.2421875 C121.432285,13.2421875 120.440108,12.8867223 119.757812,12.1757812 C119.075517,11.4648402 118.734375,10.4322984 118.734375,9.078125 C118.734375,7.79686859 119.08333,6.78906617 119.78125,6.0546875 C120.47917,5.32030883 121.437494,4.953125 122.65625,4.953125 C123.072919,4.953125 123.492185,4.98177055 123.914062,5.0390625 Z M126.949219,0.83984375 C127.368492,0.884114805 127.718749,0.90625 128,0.90625 L129.40625,0.875 L129.742188,1.1796875 C129.700521,1.60677297 129.662761,2.10807004 129.628906,2.68359375 C129.595052,3.25911746 129.578125,3.7265607 129.578125,4.0859375 L129.578125,6.0390625 C130.16667,5.31510055 130.893225,4.953125 131.757812,4.953125 C132.6849,4.953125 133.388018,5.19531008 133.867188,5.6796875 C134.346357,6.16406492 134.585938,6.86978703 134.585938,7.796875 L134.585938,9.9140625 C134.585938,10.2421891 134.605469,10.6041647 134.644531,11 C134.683594,11.3958353 134.713542,11.6510411 134.734375,11.765625 L135.773438,11.8671875 L135.695312,13.078125 C135.565104,13.0677083 135.244794,13.0520834 134.734375,13.03125 C134.223956,13.0104166 133.588545,13 132.828125,13 C132.520832,13 132.233074,13.0104166 131.964844,13.03125 C131.696613,13.0520834 131.526042,13.0677083 131.453125,13.078125 L131.375,11.9609375 L132.265625,11.765625 L132.320312,11.0625 L132.351562,10.390625 L132.351562,8.0234375 C132.351562,7.58593531 132.252605,7.23177219 132.054688,6.9609375 C131.85677,6.69010281 131.559898,6.5546875 131.164062,6.5546875 C130.736977,6.5546875 130.365887,6.75130012 130.050781,7.14453125 C129.735676,7.53776238 129.578125,8.07551742 129.578125,8.7578125 L129.578125,9.9140625 C129.578125,10.2421891 129.597656,10.6041647 129.636719,11 C129.675781,11.3958353 129.705729,11.6510411 129.726562,11.765625 L130.765625,11.8671875 L130.6875,13.078125 C130.557291,13.0677083 130.236982,13.0520834 129.726562,13.03125 C129.216143,13.0104166 128.580733,13 127.820312,13 C127.513019,13 127.194012,13.0104166 126.863281,13.03125 C126.53255,13.0520834 126.317709,13.0677083 126.21875,13.078125 L126.140625,11.9609375 L127.195312,11.765625 C127.216146,11.6041659 127.246094,11.3697932 127.285156,11.0625 C127.324219,10.7552068 127.34375,10.5312507 127.34375,10.390625 L127.34375,3.609375 C127.34375,3.4687493 127.321615,3.23047043 127.277344,2.89453125 C127.233073,2.55859207 127.200521,2.33333391 127.179688,2.21875 L125.984375,1.9453125 L126.125,0.7421875 C126.255209,0.763020937 126.529946,0.795572695 126.949219,0.83984375 Z M139.515625,1.5859375 C139.739584,1.81510531 139.851562,2.12760219 139.851562,2.5234375 C139.851562,2.90885609 139.742189,3.21484262 139.523438,3.44140625 C139.304686,3.66796988 138.99219,3.78125 138.585938,3.78125 C138.179685,3.78125 137.867189,3.66666781 137.648438,3.4375 C137.429686,3.20833219 137.320312,2.90364773 137.320312,2.5234375 C137.320312,2.13801891 137.432291,1.82812617 137.65625,1.59375 C137.880209,1.35937383 138.190102,1.2421875 138.585938,1.2421875 C138.981773,1.2421875 139.291666,1.35676969 139.515625,1.5859375 Z M139.898438,13.03125 C139.388018,13.0104166 138.752608,13 137.992188,13 C137.684894,13 137.365887,13.0104166 137.035156,13.03125 C136.704425,13.0520834 136.492188,13.0677083 136.398438,13.078125 L136.3125,11.9609375 L137.367188,11.765625 C137.377604,11.6458327 137.404948,11.4192725 137.449219,11.0859375 C137.49349,10.7526025 137.515625,10.520834 137.515625,10.390625 L137.515625,7.796875 C137.515625,7.6562493 137.494792,7.4192725 137.453125,7.0859375 C137.411458,6.7526025 137.377604,6.52604227 137.351562,6.40625 L136.15625,6.1328125 L136.296875,4.953125 C136.427084,4.97395844 136.703123,5.00260398 137.125,5.0390625 C137.546877,5.07552102 137.895832,5.09375 138.171875,5.09375 L139.578125,5.0625 L139.914062,5.3671875 C139.893229,5.59114695 139.861979,6.0494757 139.820312,6.7421875 C139.778646,7.4348993 139.757812,7.947915 139.757812,8.28125 L139.757812,9.9140625 C139.757812,10.2421891 139.776041,10.6041647 139.8125,11 C139.848959,11.3958353 139.877604,11.6510411 139.898438,11.765625 L140.9375,11.8671875 L140.859375,13.078125 C140.729166,13.0677083 140.408857,13.0520834 139.898438,13.03125 Z M142.347656,0.83984375 C142.766929,0.884114805 143.117186,0.90625 143.398438,0.90625 L144.804688,0.875 L145.140625,1.1796875 C145.098958,1.60677297 145.061198,2.10807004 145.027344,2.68359375 C144.993489,3.25911746 144.976562,3.7265607 144.976562,4.0859375 L144.976562,9.9140625 C144.976562,10.2421891 144.996094,10.6041647 145.035156,11 C145.074219,11.3958353 145.104167,11.6510411 145.125,11.765625 L146.164062,11.8671875 L146.085938,13.078125 C145.955729,13.0677083 145.635419,13.0520834 145.125,13.03125 C144.614581,13.0104166 143.97917,13 143.21875,13 C142.911457,13 142.59245,13.0104166 142.261719,13.03125 C141.930988,13.0520834 141.716146,13.0677083 141.617188,13.078125 L141.539062,11.9609375 L142.59375,11.765625 C142.614583,11.6041659 142.644531,11.3697932 142.683594,11.0625 C142.722656,10.7552068 142.742188,10.5312507 142.742188,10.390625 L142.742188,3.609375 C142.742188,3.4687493 142.720052,3.23047043 142.675781,2.89453125 C142.63151,2.55859207 142.598958,2.33333391 142.578125,2.21875 L141.382812,1.9453125 L141.523438,0.7421875 C141.653646,0.763020937 141.928383,0.795572695 142.347656,0.83984375 Z M147.605469,0.83984375 C148.024742,0.884114805 148.374999,0.90625 148.65625,0.90625 L150.0625,0.875 L150.398438,1.1796875 C150.356771,1.60677297 150.319011,2.10807004 150.285156,2.68359375 C150.251302,3.25911746 150.234375,3.7265607 150.234375,4.0859375 L150.234375,9.9140625 C150.234375,10.2421891 150.253906,10.6041647 150.292969,11 C150.332031,11.3958353 150.361979,11.6510411 150.382812,11.765625 L151.421875,11.8671875 L151.34375,13.078125 C151.213541,13.0677083 150.893232,13.0520834 150.382812,13.03125 C149.872393,13.0104166 149.236983,13 148.476562,13 C148.169269,13 147.850262,13.0104166 147.519531,13.03125 C147.1888,13.0520834 146.973959,13.0677083 146.875,13.078125 L146.796875,11.9609375 L147.851562,11.765625 C147.872396,11.6041659 147.902344,11.3697932 147.941406,11.0625 C147.980469,10.7552068 148,10.5312507 148,10.390625 L148,3.609375 C148,3.4687493 147.977865,3.23047043 147.933594,2.89453125 C147.889323,2.55859207 147.856771,2.33333391 147.835938,2.21875 L146.640625,1.9453125 L146.78125,0.7421875 C146.911459,0.763020937 147.186196,0.795572695 147.605469,0.83984375 Z M154.664062,9.4609375 C154.716146,10.2734416 154.902342,10.8502587 155.222656,11.1914062 C155.54297,11.5325538 156.023434,11.703125 156.664062,11.703125 C157.007814,11.703125 157.322915,11.6627608 157.609375,11.5820312 C157.895835,11.5013017 158.121093,11.4218754 158.285156,11.34375 C158.44922,11.2656246 158.554687,11.2109377 158.601562,11.1796875 L159.15625,12.1015625 C158.312496,12.8567746 157.268235,13.2369791 156.023438,13.2421875 C154.794265,13.2421875 153.833337,12.881514 153.140625,12.1601562 C152.447913,11.4387985 152.101562,10.4270898 152.101562,9.125 C152.101562,7.80207672 152.450517,6.77604531 153.148438,6.046875 C153.846358,5.31770469 154.783848,4.953125 155.960938,4.953125 C157.028651,4.953125 157.855466,5.26171566 158.441406,5.87890625 C159.027347,6.49609684 159.320312,7.35416117 159.320312,8.453125 L159.304688,8.84375 L158.96875,9.4609375 L154.664062,9.4609375 Z M156.789062,8.0390625 C156.789062,6.82551477 156.453128,6.21875 155.78125,6.21875 C155.395831,6.21875 155.11849,6.39713363 154.949219,6.75390625 C154.779947,7.11067887 154.684896,7.61978836 154.664062,8.28125 L156.773438,8.171875 L156.789062,8.0390625 Z M169.648438,13.078125 C169.518229,13.0677083 169.197919,13.0520834 168.6875,13.03125 C168.177081,13.0104166 167.54167,13 166.78125,13 C166.473957,13 166.187501,13.0104166 165.921875,13.03125 C165.656249,13.0520834 165.484375,13.0677083 165.40625,13.078125 L165.328125,11.9609375 L166.226562,11.765625 L166.273438,11.0625 L166.304688,10.390625 L166.304688,8.0234375 C166.304688,7.58593531 166.20573,7.23177219 166.007812,6.9609375 C165.809895,6.69010281 165.513023,6.5546875 165.117188,6.5546875 C164.690102,6.5546875 164.320314,6.75130012 164.007812,7.14453125 C163.695311,7.53776238 163.539062,8.07551742 163.539062,8.7578125 L163.539062,9.9140625 C163.539062,10.2421891 163.557291,10.6041647 163.59375,11 C163.630209,11.3958353 163.658854,11.6510411 163.679688,11.765625 L164.71875,11.8671875 L164.640625,13.078125 C164.510416,13.0677083 164.190107,13.0520834 163.679688,13.03125 C163.169268,13.0104166 162.533858,13 161.773438,13 C161.466144,13 161.147137,13.0104166 160.816406,13.03125 C160.485675,13.0520834 160.273438,13.0677083 160.179688,13.078125 L160.09375,11.9609375 L161.148438,11.765625 C161.158854,11.6458327 161.186198,11.4218766 161.230469,11.09375 C161.27474,10.7656234 161.296875,10.5312507 161.296875,10.390625 L161.296875,7.796875 C161.296875,7.66666602 161.276042,7.43229336 161.234375,7.09375 C161.192708,6.75520664 161.158854,6.52604227 161.132812,6.40625 L159.9375,6.1328125 L160.078125,4.953125 C160.208334,4.97395844 160.484373,5.00260398 160.90625,5.0390625 C161.328127,5.07552102 161.677082,5.09375 161.953125,5.09375 L162.71875,5.0625 L163.054688,5.3671875 L163.21875,6.5078125 C163.562502,6.00781 163.946612,5.62369926 164.371094,5.35546875 C164.795575,5.08723824 165.296872,4.953125 165.875,4.953125 C166.750004,4.953125 167.41406,5.19531008 167.867188,5.6796875 C168.320315,6.16406492 168.546875,6.86978703 168.546875,7.796875 L168.546875,9.9140625 C168.546875,10.2421891 168.565104,10.6041647 168.601562,11 C168.638021,11.3958353 168.666667,11.6510411 168.6875,11.765625 L169.726562,11.8671875 L169.648438,13.078125 Z" transform="translate(0 45)"></path><g fill="#221F20"><path d="M27.5764 9.02646452C27.5764 6.83565806 26.6014 6.40507742 22.8379 6.14733548L22.8379 4.21275484 34.1734 4.21275484 34.1734 6.14733548C31.1539 6.44752903 30.9694 6.83565806 30.9694 9.02646452L30.9694 34.388271 27.1594 34.388271 7.5979 12.2088194 7.5979 29.5730452C7.5979 31.7653677 8.5729 32.1944323 12.3364 32.4521742L12.3364 34.388271.9994 34.388271.9994 32.4521742C4.0204 32.1519806 4.2064 31.7653677 4.2064 29.5730452L4.2064 8.94004516C3.1369 7.13585161 2.4859 6.27620645.9994 6.14733548L.9994 4.21275484 13.7314 4.21275484 27.5764 19.9016581 27.5764 9.02646452zM37.963 4.65046129C37.963 2.37323548 39.775.394687097 42.8875.394687097 45.955.394687097 47.8135 2.37323548 47.8135 4.65046129 47.8135 6.92920323 45.955 8.90623548 42.8875 8.90623548 39.775 8.90623548 37.963 6.92920323 37.963 4.65046129L37.963 4.65046129zM47.5345 30.9128484C47.5345 32.2030742 48.2785 32.3319452 49.996 32.4608161L49.996 34.2665258 35.5 34.2665258 35.5 32.4608161C37.2205 32.3319452 37.963 32.2030742 37.963 30.9128484L37.963 15.8683 35.5 14.4082677 35.5 13.0755903 45.862 10.4951387 47.5345 10.4951387 47.5345 30.9128484zM60.36985 19.2145484L66.92035 19.2145484C66.92035 14.9587742 66.17635 12.5087097 63.94735 12.5087097 61.62385 12.5087097 60.55435 15.1740645 60.36985 19.2145484M75.05185 20.2455161L75.05185 21.3204516 60.32335 21.3204516C60.32335 26.0492581 63.20335 29.0572581 67.29235 29.0572581 70.21885 29.0572581 72.44935 28.1536452 74.21485 26.0492581L75.19135 26.6071935C73.89085 31.5937419 70.21885 34.8170323 64.13335 34.8170323 57.21085 34.8170323 51.68035 30.7340968 51.68035 23.2125806 51.68035 15.4318065 57.67435 10.6165806 64.55035 10.6165806 71.52085 10.6165806 75.05185 14.6146129 75.05185 20.2455161M103.99285 29.2722452C103.99285 30.7337935 104.13235 31.4645677 105.47935 31.4645677L106.54735 31.4645677 106.54735 33.3551806 96.09235 34.816729 94.28035 34.816729 94.41985 30.6049226C92.84035 32.5819548 90.37885 34.816729 86.05735 34.816729 81.87535 34.816729 78.90085 32.4955355 78.90085 27.4680516L78.90085 17.2796645C78.90085 16.0758581 78.57685 15.0888581 77.27485 14.700729L76.57885 14.4854387 76.57885 12.7661484 86.98585 10.6162774 88.75285 10.6162774 88.47235 16.2911484 88.47235 26.6933097C88.47235 28.6718581 89.30935 29.787729 91.40035 29.787729 92.56285 29.787729 93.25885 29.6588581 94.41985 29.3146968L94.41985 17.2796645C94.41985 16.0758581 94.09435 15.0888581 92.79385 14.700729L92.09785 14.4854387 92.09785 12.7661484 102.50635 10.6162774 104.27185 10.6162774 103.99285 16.2911484 103.99285 29.2722452zM144.22915 13.4431C144.46015 12.8851645 148.22365 11.5100355 147.80665 12.4545839L137.48515 34.5157774 134.32465 34.5157774 128.84215 21.5346806 122.24515 34.5157774 119.08615 34.5157774 109.09615 14.5711C108.63265 13.6265516 108.30715 13.3248419 106.72615 12.8518097L106.72615 11.0476161 121.50265 11.0476161 121.50265 12.8518097C120.10765 13.0246484 119.55115 13.4112613 119.55115 14.0995839 119.55115 14.4846806 119.69065 14.959229 119.96815 15.5596161L124.15015 24.7594871 127.40215 18.5266806 125.72965 14.5711C125.35915 13.6265516 124.80115 13.195971 123.63865 12.8518097L123.63865 11.0476161 138.32215 11.0476161 138.32215 12.8518097C136.41715 13.0671 135.53365 13.2384226 135.53365 14.2709065 135.53365 14.6135516 135.62665 15.0456484 135.81265 15.5596161L139.39015 24.2424871 144.22915 13.4431z" transform="translate(-1)"></path><path d="M162.55435 17.9678355L155.90935 34.5163839 152.14735 34.5163839 140.94985 7.73699677C140.52985 6.79244839 139.55485 6.36186774 138.25435 6.14657742L138.25435 4.2135129 154.28335 4.2135129 154.28335 6.14657742C152.70535 6.3179 152.14735 6.87886774 152.14735 7.77944839 152.14735 8.46777097 152.47135 9.32893226 152.84335 10.2734806L157.86085 22.6102226 161.15935 14.3139645 158.74435 7.73699677C158.37235 6.79244839 157.76935 6.36186774 156.46735 6.14657742L156.46735 4.2135129 172.49785 4.2135129 172.49785 6.14657742C170.22085 6.18902903 169.47685 6.79244839 169.47685 7.99625484 169.47685 8.7255129 169.75585 9.67157742 170.12785 10.8329323L174.12385 22.3949323 178.44535 10.6616097C178.77085 9.71554516 179.04835 8.85438387 179.04835 8.16757742 179.04835 7.00773871 178.30585 6.27544839 176.07535 6.14657742L176.07535 4.2135129 185.55385 4.2135129 185.55385 6.14657742C184.25335 6.36186774 183.23035 6.79244839 182.85835 7.73699677L172.54435 34.5163839 168.73435 34.5163839 162.55435 17.9678355zM198.033 31.4177097C198.033 32.7079355 198.7755 32.8368065 200.496 32.9656774L200.496 34.7713871 186 34.7713871 186 32.9656774C187.7175 32.8368065 188.4615 32.7079355 188.4615 31.4177097L188.4615 16.3731613 186 14.9116129 186 13.5789355 196.3605 11 198.033 11 198.033 31.4177097zM201.3859 14.5284968L201.3859 13.1958194 211.7479 10.6168839 213.4189 10.6168839 213.4189 32.038271C213.4189 37.1536903 212.0734 39.3884645 209.7034 41.3654968 206.8219 43.7306581 204.6394 44.6312387 201.1999 45.8790129L200.4109 44.9344645 202.3159 42.2266581C203.8024 40.0767871 203.8489 37.3250129 203.8489 33.9728516L203.8489 15.9900452 201.3859 14.5284968zM203.70925 4.77129677C203.70925 2.49407097 205.52125.515522581 208.63375.515522581 211.70125.515522581 213.55975 2.49407097 213.55975 4.77129677 213.55975 7.05003871 211.70125 9.02707097 208.63375 9.02707097 205.52125 9.02707097 203.70925 7.05003871 203.70925 4.77129677M188.33275 4.77129677C188.33275 2.49407097 190.14475.515522581 193.25725.515522581 196.32475.515522581 198.18175 2.49407097 198.18175 4.77129677 198.18175 7.05003871 196.32475 9.02707097 193.25725 9.02707097 190.14475 9.02707097 188.33275 7.05003871 188.33275 4.77129677M188.33275 41.6232387C188.33275 39.3460129 190.14475 37.3674645 193.25725 37.3674645 196.32475 37.3674645 198.18175 39.3460129 198.18175 41.6232387 198.18175 43.9019806 196.32475 45.8790129 193.25725 45.8790129 190.14475 45.8790129 188.33275 43.9019806 188.33275 41.6232387" transform="translate(-1)"></path></g></g></svg>
