<svg xmlns="http://www.w3.org/2000/svg" viewBox="0 0 124 124" id="sprite-logo" width="100%" height="100%"><path fill="#000" d="M62,0 L0,0 L0,61.9992721 C0,96.2408049 27.7584941,124 62,124 C96.2415059,124 124,96.2408049 124,61.9992721 C124,27.7577394 96.2415059,0 62,0 Z"></path><path fill="#FFF" d="M38.6697889 44.2648618C38.6697889 37.2567226 33.8542213 31.9998867 26.9943088 31.9998867 20.1358619 31.9998867 15.3202942 37.2567226 15.3202942 44.2648618 15.3202942 51.273001 20.1358619 56.5283738 26.9943088 56.5283738 33.8542213 56.5283738 38.6697889 51.273001 38.6697889 44.2648618M9.92 44.2648618C9.92 34.4812654 17.508256 27.28 26.9943088 27.28 36.4803616 27.28 44.0700832 34.4812654 44.0700832 44.2648618 44.0700832 54.0469951 36.4803616 61.2482605 26.9943088 61.2482605 17.508256 61.2482605 9.92 54.0469951 9.92 44.2648618M51.984 39.106L51.984 60.861 47.12 60.861 47.12 27.28 47.508 27.28 68.718 49.52 68.718 27.766 73.584 27.766 73.584 61.346 73.194 61.346zM76.88 28.52L97.943 28.52 97.943 33.142 82.085 33.142 82.085 42.633 96.144 42.633 96.144 47.158 82.085 47.158 82.085 56.991 98.625 56.991 98.625 61.612 76.88 61.612zM11.16 65.9043477L15.7235051 65.9043477 18.7761002 74.3258194C19.2685015 75.7128164 19.8239184 77.9045059 19.8854686 78.1210413 19.9162437 77.9981428 20.5024357 75.7128164 21.1794876 74.3258194L25.2198162 65.72 25.6506674 65.72 29.7510808 74.3258194C30.398823 75.6835549 30.985015 77.9045059 31.0465652 78.1210413 31.0773403 77.9981428 31.6327572 75.7464672 32.1559336 74.3258194L35.1777536 65.9043477 39.3719577 65.9043477 31.7558576 87.0648315 31.3250064 87.0648315 26.6061604 76.9491166C26.082984 75.837178 25.496792 74.0478347 25.4352418 73.8620239 25.4044667 73.9556609 24.7567245 75.8079164 24.2320826 76.9491166L19.3315171 87.0648315 18.8992005 87.0648315 11.16 65.9043477zM55.7062867 76.4853211C55.7062867 72.5672007 53.1167834 69.573745 49.2933457 69.573745 45.4699081 69.573745 42.8804048 72.5672007 42.8804048 76.4853211 42.8804048 80.4034415 45.4699081 83.3954342 49.2933457 83.3954342 53.1167834 83.3954342 55.7062867 80.4034415 55.7062867 76.4853211M38.44 76.4853211C38.44 70.2862636 43.2497057 65.72 49.2933457 65.72 55.3369857 65.72 60.1466915 70.2862636 60.1466915 76.4853211 60.1466915 82.6843787 55.3369857 87.2491792 49.2933457 87.2491792 43.2497057 87.2491792 38.44 82.6843787 38.44 76.4853211M69.6468752 75.7757288C71.7732869 75.7757288 73.131787 74.944701 73.131787 72.6315761 73.131787 70.2848005 71.7117367 69.5152219 69.6468752 69.5152219L66.3158389 69.5152219 66.3158389 75.7757288 69.6468752 75.7757288zM62 65.72L69.7699756 65.72C74.0565049 65.72 77.5707262 67.7258787 77.5707262 72.6315761 77.5707262 75.8064534 75.9059408 77.8137951 73.4703129 78.7677214L78.2492435 86.6961361 73.314972 86.6961361 69.0606832 79.4158645 66.3158389 79.4158645 66.3158389 86.6961361 62 86.6961361 62 65.72zM80.6 65.72L84.916 65.72 84.916 82.902 94.412 82.902 94.412 86.696 80.6 86.696zM102.94829 82.9023772C107.604121 82.9023772 109.731998 80.1254569 109.731998 76.2087996 109.731998 72.2906792 107.604121 69.5152219 102.94829 69.5152219L101.037304 69.5152219 101.037304 82.9023772 102.94829 82.9023772zM96.72 65.72L103.165182 65.72C109.607432 65.72 114.203178 70.0082789 114.203178 76.2087996 114.203178 82.4078571 109.638207 86.6961361 103.165182 86.6961361L96.72 86.6961361 96.72 65.72z"></path></svg>
