<svg xmlns="http://www.w3.org/2000/svg" viewBox="0 0 162 80" id="sprite-logo-footer" width="100%" height="100%"><g fill="#E6077D" fill-rule="evenodd"><path d="M10.2069012 80C13.9965922 80 16.8767574 78.0929831 18.2915754 74.8792402L18.2915754 79.3975577 24.0013765 79.3975577 24.0013765 43 17.9378709 43 17.9378709 57.8609614C16.4725237 55.0488467 13.9965922 53.6933514 10.6616641 53.6933514 4.34551238 53.6933514 0 59.0658461 0 66.8968792 0 74.7286296 4.09286632 80 10.2069012 80L10.2069012 80zM12.2785989 75.3819926C8.58996634 75.3819926 6.31615172 72.1682497 6.31615172 66.7971894 6.31615172 61.4254119 8.53943713 58.3127932 12.2280697 58.3127932 15.8661731 58.3127932 18.0894585 61.1736771 18.0894585 66.0936228L18.0894585 67.7008529C18.0894585 72.4199845 15.8156439 75.3819926 12.2785989 75.3819926L12.2785989 75.3819926zM30.5196451 50.1296181L37.0884429 50.1296181 37.0884429 43.8541772 30.5196451 43.8541772 30.5196451 50.1296181zM30.8228204 79.3975577L36.8863261 79.3975577 36.8863261 54.2957938 30.8228204 54.2957938 30.8228204 79.3975577zM65.8893729 65.5915875C65.8893729 57.9104478 61.6954482 53.6933514 54.3687122 53.6933514 46.8398593 53.6933514 42.2922301 58.8141113 42.2922301 67.0984105 42.2922301 75.3310719 46.9409178 80 54.6718875 80 59.8258673 80 63.8176752 77.5909479 65.6872561 73.2232409L61.0385684 71.1139756C59.8763965 73.8256833 57.7541695 75.2815856 54.8740043 75.2815856 50.8821964 75.2815856 48.2041481 72.5705951 48.1536189 68.3534987L65.8893729 68.3534987 65.8893729 65.5915875zM59.9269257 64.3867028L48.1536189 64.3867028C48.2546773 60.2205272 50.4274335 57.7103508 54.2676537 57.7103508 57.8552279 57.7103508 59.9269257 59.8691025 59.9269257 63.9857918L59.9269257 64.3867028zM77.258446 60.3711378L77.258446 54.2957938 71.5991741 54.2957938 71.5991741 79.3975577 77.6626797 79.3975577 77.6626797 68.9050204C77.6626797 66.0936228 77.9153258 63.2320217 79.9364943 61.2748013 81.0986663 60.1703237 82.7661303 59.5169607 85.1915326 59.5169607L86 59.5169607 86 53.7442721C85.7473539 53.6933514 85.5452371 53.6933514 85.292591 53.6933514 81.1997247 53.6933514 78.5216764 56.4050591 77.258446 60.3711378L77.258446 60.3711378zM6.8670465 36.3975577L12.9822266 36.3975577 17.3430518 19.8303935C17.493425 19.0780578 17.6939227 18.0230665 17.7941716 17.3711378L17.8944205 17.3711378C17.9445449 18.0230665 18.1450426 19.0780578 18.3455403 19.8303935L22.656241 36.3975577 28.7714211 36.3975577 35.6885921 11.2957938 29.7739097 11.2957938 25.8642044 28.0142857C25.7138311 28.8175422 25.5634578 29.7714092 25.4130845 30.724559L25.3128357 30.724559C25.2125868 29.7714092 24.9619647 28.8175422 24.8115914 28.0142857L20.6512639 11.2957938 14.9872037 11.2957938 10.8770007 28.0142857C10.676503 28.8175422 10.4760053 29.7714092 10.325632 30.724559L10.2253831 30.724559C10.1251343 29.7714092 9.92463655 28.8175422 9.77426327 28.0142857L5.91468239 11.2957938 0 11.2957938 6.8670465 36.3975577zM45.7628858 37C49.8229644 37 52.9808033 35.1424695 54.1837896 32.0800543 54.233914 33.6363636 54.3842873 35.1424695 54.584785 36.3975577L60.5997162 36.3975577C60.098472 34.6404342 59.8478498 32.0298507 59.8478498 28.6160109L59.8478498 21.1364024C59.8478498 13.8561737 56.5396376 10.6933514 49.1212224 10.6933514 42.6551713 10.6933514 38.4447195 14.0067843 38.0437241 19.3792789L44.2090286 19.3792789C44.4095263 16.5169607 46.1638812 14.9606513 49.1212224 14.9606513 52.3291858 14.9606513 53.7827941 16.5678814 53.7827941 20.333146L53.7827941 20.9857918 48.4696049 21.6377205C44.5097751 22.1899593 42.1038026 22.8433223 40.2993233 23.8968792 38.2943462 25.1519674 37.2417332 27.1601085 37.2417332 29.5698779 37.2417332 34.0379919 40.6501943 37 45.7628858 37L45.7628858 37zM47.7177385 32.7334173C45.0611438 32.7334173 43.4571622 31.3772049 43.4571622 29.2693739 43.4571622 27.109905 44.960895 25.9050204 48.2691072 25.3534987L53.9331674 24.4993216 53.9331674 26.1058345C53.9331674 30.1221167 51.4269461 32.7334173 47.7177385 32.7334173L47.7177385 32.7334173zM82.8048374 36.3975577L89.7721328 36.3975577 80.1983672 21.1364024 89.3711373 11.2957938 82.052971 11.2957938 72.2787077 22.4409769 72.2787077 0 66.2637765 0 66.2637765 36.3975577 72.2787077 36.3975577 72.2787077 28.917232 75.9879153 25.0522776 82.8048374 36.3975577zM109.16957 36.3975577L116.136865 36.3975577 106.5631 21.1364024 115.73587 11.2957938 108.417704 11.2957938 98.6434403 22.4409769 98.6434403 0 92.628509 0 92.628509 36.3975577 98.6434403 36.3975577 98.6434403 28.917232 102.352648 25.0522776 109.16957 36.3975577zM141.54995 22.5915875C141.54995 14.9104478 137.389622 10.6933514 130.12158 10.6933514 122.653041 10.6933514 118.141842 15.8141113 118.141842 24.0984105 118.141842 32.3310719 122.75329 37 130.422327 37 135.535019 37 139.494848 34.5902307 141.349452 30.2232409L136.738005 28.1139756C135.585143 30.8249661 133.479917 32.2815856 130.622825 32.2815856 126.662995 32.2815856 124.0064 29.5698779 123.956276 25.3534987L141.54995 25.3534987 141.54995 22.5915875zM135.635267 21.3867028L123.956276 21.3867028C124.056525 17.2205272 126.211875 14.7103508 130.021332 14.7103508 133.580166 14.7103508 135.635267 16.8691025 135.635267 20.9857918L135.635267 21.3867028zM153.328474 17.3711378L153.328474 11.2957938 147.714538 11.2957938 147.714538 36.3975577 153.72947 36.3975577 153.72947 25.9050204C153.72947 23.0936228 153.980092 20.2320217 155.985069 18.2740841 157.137931 17.1696065 158.792037 16.5169607 161.198009 16.5169607L162 16.5169607 162 10.743555C161.749378 10.6933514 161.54888 10.6933514 161.298258 10.6933514 157.238179 10.6933514 154.581585 13.4043419 153.328474 17.3711378L153.328474 17.3711378z"></path></g></svg>
